<?xml version="1.0" encoding="utf-8"?>
<!-- Generator: Adobe Illustrator 26.5.0, SVG Export Plug-In . SVG Version: 6.00 Build 0)  -->
<svg version="1.1" id="Layer_1" xmlns="http://www.w3.org/2000/svg" xmlns:xlink="http://www.w3.org/1999/xlink" x="0px" y="0px"
	 viewBox="0 0 250 128" style="enable-background:new 0 0 250 128;" xml:space="preserve">
<style type="text/css">
	.st0{fill:#231F20;}
	.st1{fill:#1B75BB;}
	.st2{fill:#F05A28;}
</style>
<g>
	<g>
		<polygon class="st0" points="133.7,65.8 135.5,65.8 135.5,56.8 138.5,56.8 138.5,55.1 130.8,55.1 130.8,56.8 133.7,56.8 		"/>
		<path class="st0" d="M146.5,64.1c0.3-0.6,0.5-1.3,0.5-2.1v-3c0-0.8-0.2-1.5-0.5-2.1c-0.3-0.6-0.8-1.1-1.3-1.4
			c-0.6-0.3-1.2-0.5-2-0.5c-0.8,0-1.4,0.2-2,0.5c-0.6,0.3-1,0.8-1.3,1.4c-0.3,0.6-0.5,1.3-0.5,2.1v3c0,0.8,0.2,1.5,0.5,2.1
			c0.3,0.6,0.8,1.1,1.3,1.4c0.6,0.3,1.2,0.5,2,0.5c0.8,0,1.4-0.2,2-0.5C145.7,65.1,146.1,64.7,146.5,64.1z M145.1,62
			c0,0.4-0.1,0.8-0.3,1.1c-0.2,0.3-0.4,0.6-0.7,0.8c-0.3,0.2-0.7,0.3-1.1,0.3c-0.4,0-0.8-0.1-1.1-0.3c-0.3-0.2-0.5-0.4-0.7-0.8
			c-0.2-0.3-0.3-0.7-0.3-1.1v-3.1c0-0.4,0.1-0.8,0.3-1.1c0.2-0.3,0.4-0.6,0.7-0.8c0.3-0.2,0.7-0.3,1.1-0.3c0.4,0,0.8,0.1,1.1,0.3
			c0.3,0.2,0.5,0.4,0.7,0.8c0.2,0.3,0.3,0.7,0.3,1.1V62z"/>
		<path class="st0" d="M156,64.1c0.3-0.6,0.5-1.3,0.5-2.2v-6.8h-1.8V62c0,0.7-0.2,1.2-0.5,1.6c-0.4,0.4-0.9,0.6-1.5,0.6
			c-0.7,0-1.2-0.2-1.5-0.6c-0.4-0.4-0.5-0.9-0.5-1.6v-6.9h-1.8V62c0,0.8,0.1,1.6,0.4,2.2c0.3,0.6,0.7,1.1,1.3,1.4
			c0.6,0.3,1.3,0.5,2.1,0.5c0.8,0,1.5-0.2,2.1-0.5C155.3,65.2,155.7,64.7,156,64.1z"/>
		<path class="st0" d="M160.4,61.4h1.7l2.3,4.4h2.1l-2.5-4.6c0.2-0.1,0.4-0.1,0.6-0.3c0.5-0.3,0.8-0.6,1.1-1.1
			c0.3-0.5,0.4-1,0.4-1.7c0-0.6-0.1-1.2-0.4-1.6s-0.6-0.8-1.1-1.1c-0.5-0.3-1-0.4-1.6-0.4h-2.7h-1h-0.7v10.7h1.8V61.4z M163.1,56.8
			c0.3,0,0.5,0.1,0.7,0.2c0.2,0.1,0.3,0.3,0.4,0.5c0.1,0.2,0.2,0.5,0.2,0.8c0,0.3-0.1,0.6-0.2,0.8c-0.1,0.2-0.2,0.4-0.4,0.5
			c-0.2,0.1-0.4,0.2-0.7,0.2h-2.7v-2.9H163.1z"/>
		<path class="st0" d="M139.3,81.4c0.4-0.8,0.6-1.8,0.6-3h-1.7c0,0.8-0.1,1.6-0.3,2.2c0,0.1-0.1,0.1-0.1,0.2l-1.8-1.9
			c-0.3-0.3-0.6-0.7-0.8-1c-0.2-0.3-0.4-0.6-0.5-1c-0.1-0.3-0.2-0.6-0.2-0.9c0-0.5,0.1-0.8,0.3-1.1c0.2-0.3,0.5-0.4,0.9-0.4
			c0.4,0,0.7,0.1,0.9,0.4c0.2,0.2,0.3,0.6,0.3,1v0.2h1.8V76c0-0.9-0.3-1.6-0.8-2.1c-0.5-0.5-1.2-0.7-2.2-0.7c-0.9,0-1.7,0.3-2.2,0.8
			c-0.5,0.5-0.8,1.2-0.8,2.2c0,0.4,0.1,0.9,0.2,1.3c0.1,0.3,0.2,0.6,0.4,0.9c-0.3,0.2-0.6,0.4-0.9,0.6c-0.5,0.5-0.7,1.2-0.7,2.1
			c0,0.6,0.1,1.2,0.4,1.7c0.3,0.5,0.6,0.8,1.1,1c0.5,0.2,1.1,0.4,1.7,0.4c1,0,1.9-0.2,2.6-0.7c0.1,0,0.1-0.1,0.2-0.2l0.7,0.7h2.1
			l-1.7-1.8C139.1,81.9,139.2,81.7,139.3,81.4z M135.4,82.5c-0.6,0-1.1-0.1-1.4-0.4c-0.3-0.3-0.5-0.6-0.5-1.1c0-0.6,0.2-1,0.5-1.3
			c0.1-0.1,0.2-0.2,0.3-0.2c0.1,0.1,0.1,0.2,0.2,0.2l2.3,2.4C136.4,82.3,136,82.5,135.4,82.5z"/>
		<path class="st0" d="M151.8,78.3c-0.4-0.2-1-0.3-1.7-0.5c0,0-0.1,0-0.1,0c0,0-0.1,0-0.1,0c0,0,0,0-0.1,0c0,0,0,0-0.1,0
			c-0.5-0.1-0.9-0.2-1.2-0.3c-0.3-0.1-0.5-0.2-0.7-0.4c-0.2-0.2-0.3-0.5-0.3-0.8v0c0-0.5,0.2-0.8,0.6-1c0.4-0.2,0.9-0.4,1.6-0.4
			c0.4,0,0.8,0.1,1.3,0.2c0.4,0.2,0.8,0.4,1.3,0.7l0.9-1.5c-0.3-0.2-0.7-0.5-1.1-0.6c-0.4-0.2-0.7-0.3-1.1-0.4
			c-0.4-0.1-0.8-0.1-1.2-0.1c-0.8,0-1.5,0.1-2.1,0.4c-0.6,0.3-1,0.6-1.3,1.1c-0.3,0.5-0.5,1.1-0.5,1.7v0c0,0.8,0.2,1.4,0.5,1.8
			c0.3,0.4,0.7,0.7,1.2,0.9c0.5,0.2,1.1,0.3,1.8,0.4l0.1,0c0,0,0,0,0,0c0,0,0,0,0,0c0.4,0.1,0.8,0.2,1.1,0.3
			c0.3,0.1,0.5,0.2,0.7,0.4c0.2,0.2,0.3,0.5,0.3,0.8v0c0,0.5-0.2,0.8-0.6,1.1c-0.4,0.3-1,0.4-1.7,0.4c-0.6,0-1.1-0.1-1.6-0.3
			c-0.5-0.2-1-0.4-1.4-0.8l-0.9,1.4c0.3,0.3,0.7,0.5,1.1,0.7c0.4,0.2,0.9,0.3,1.3,0.4c0.5,0.1,1,0.2,1.5,0.2c0.8,0,1.6-0.1,2.2-0.4
			c0.6-0.2,1.1-0.6,1.4-1.1c0.3-0.5,0.5-1,0.5-1.7v0c0-0.7-0.1-1.3-0.4-1.7C152.7,78.7,152.3,78.4,151.8,78.3z"/>
		<polygon class="st0" points="156,73.2 155.3,73.2 155.3,83.9 156,83.9 157,83.9 162.3,83.9 162.3,82.2 157,82.2 157,79.4 
			161.5,79.4 161.5,77.8 157,77.8 157,74.9 162.3,74.9 162.3,73.2 157,73.2 		"/>
		<path class="st0" d="M170.3,79.1c0.5-0.3,0.8-0.6,1.1-1.1c0.3-0.5,0.4-1,0.4-1.7c0-0.6-0.1-1.2-0.4-1.6c-0.3-0.5-0.6-0.8-1.1-1.1
			c-0.5-0.3-1-0.4-1.6-0.4H166h-1h-0.7v10.7h1.8v-4.4h1.7l2.3,4.4h2.1l-2.5-4.6C169.9,79.3,170.1,79.2,170.3,79.1z M166,74.9h2.7
			c0.3,0,0.5,0.1,0.7,0.2c0.2,0.1,0.3,0.3,0.4,0.5c0.1,0.2,0.2,0.5,0.2,0.8c0,0.3-0.1,0.6-0.2,0.8c-0.1,0.2-0.2,0.4-0.4,0.5
			c-0.2,0.1-0.4,0.2-0.7,0.2H166V74.9z"/>
		<polygon class="st0" points="177.2,81 174.8,73.2 172.9,73.2 176.4,83.9 177.9,83.9 181.5,73.2 179.6,73.2 		"/>
		<rect x="182.9" y="73.2" class="st0" width="1.8" height="10.7"/>
		<path class="st0" d="M188.9,75.9c0.2-0.3,0.4-0.6,0.7-0.8c0.3-0.2,0.6-0.3,1.1-0.3c0.3,0,0.6,0.1,0.9,0.2c0.3,0.1,0.5,0.3,0.7,0.6
			c0.2,0.3,0.3,0.6,0.4,0.9h1.8c-0.1-0.7-0.4-1.3-0.7-1.8c-0.3-0.5-0.8-0.9-1.3-1.2c-0.5-0.3-1.1-0.4-1.7-0.4c-0.8,0-1.4,0.2-2,0.5
			c-0.6,0.3-1,0.8-1.3,1.4c-0.3,0.6-0.5,1.3-0.5,2.1V80c0,0.8,0.2,1.5,0.5,2.1c0.3,0.6,0.7,1.1,1.3,1.4c0.6,0.3,1.2,0.5,2,0.5
			c0.6,0,1.2-0.1,1.7-0.4c0.5-0.3,1-0.7,1.3-1.2c0.3-0.5,0.6-1.1,0.7-1.8h-1.8c-0.1,0.4-0.2,0.7-0.4,0.9c-0.2,0.3-0.4,0.4-0.7,0.6
			c-0.3,0.1-0.5,0.2-0.9,0.2c-0.4,0-0.8-0.1-1.1-0.3c-0.3-0.2-0.5-0.4-0.7-0.8c-0.2-0.3-0.2-0.7-0.2-1.2v-2.9
			C188.7,76.6,188.8,76.2,188.9,75.9z"/>
		<polygon class="st0" points="197,73.2 196.3,73.2 196.3,83.9 197,83.9 198,83.9 203.3,83.9 203.3,82.2 198,82.2 198,79.4 
			202.5,79.4 202.5,77.8 198,77.8 198,74.9 203.3,74.9 203.3,73.2 198,73.2 		"/>
		<path class="st0" d="M212.1,79.2c-0.3-0.4-0.7-0.7-1.1-0.9c-0.4-0.2-1-0.3-1.7-0.5c0,0-0.1,0-0.1,0c0,0-0.1,0-0.1,0c0,0,0,0-0.1,0
			c0,0,0,0-0.1,0c-0.5-0.1-0.9-0.2-1.2-0.3c-0.3-0.1-0.5-0.2-0.7-0.4c-0.2-0.2-0.3-0.5-0.3-0.8v0c0-0.5,0.2-0.8,0.6-1
			c0.4-0.2,0.9-0.4,1.6-0.4c0.4,0,0.8,0.1,1.3,0.2c0.4,0.2,0.8,0.4,1.3,0.7l0.9-1.5c-0.3-0.2-0.7-0.5-1.1-0.6
			c-0.4-0.2-0.7-0.3-1.1-0.4c-0.4-0.1-0.8-0.1-1.2-0.1c-0.8,0-1.5,0.1-2.1,0.4c-0.6,0.3-1,0.6-1.3,1.1c-0.3,0.5-0.5,1.1-0.5,1.7v0
			c0,0.8,0.2,1.4,0.5,1.8c0.3,0.4,0.7,0.7,1.2,0.9c0.5,0.2,1.1,0.3,1.8,0.4l0.1,0c0,0,0,0,0,0c0,0,0,0,0,0c0.4,0.1,0.8,0.2,1.1,0.3
			c0.3,0.1,0.5,0.2,0.7,0.4c0.2,0.2,0.3,0.5,0.3,0.8v0c0,0.5-0.2,0.8-0.6,1.1c-0.4,0.3-1,0.4-1.7,0.4c-0.6,0-1.1-0.1-1.6-0.3
			c-0.5-0.2-1-0.4-1.4-0.8l-0.9,1.4c0.3,0.3,0.7,0.5,1.1,0.7c0.4,0.2,0.9,0.3,1.3,0.4c0.5,0.1,1,0.2,1.5,0.2c0.8,0,1.6-0.1,2.2-0.4
			c0.6-0.2,1.1-0.6,1.4-1.1c0.3-0.5,0.5-1,0.5-1.7v0C212.6,80.1,212.4,79.6,212.1,79.2z"/>
		<path class="st1" d="M67.8,85.1c3.1,0,6.2,0,9,0c-1.5-1.8-3.1-3.8-4.5-5.5C70.9,81.3,69.4,83.1,67.8,85.1z"/>
		<path class="st1" d="M73.3,51.5h-8.2v1.6l0.5,0c0.9,0,1.6,0.2,2.1,0.4c0.5,0.2,0.9,0.5,1.3,0.9c0.5,0.5,2.1,2.2,2.3,2.4l23.1,29.1
			V76L76.4,52.9C75.6,52,74.5,51.5,73.3,51.5z"/>
		<path class="st1" d="M66.9,72.2c-0.6-1.3-1.4-2.3-2.4-3.2c-0.7-0.6-1.5-1-2.4-1.3c-0.9-0.3-2.1-0.6-3.7-0.9c1.1-0.4,2-0.8,2.6-1.1
			c0.6-0.3,1.1-0.8,1.6-1.3c1.3-1.4,2-3.1,2-5.3c0-1.3-0.3-2.5-0.9-3.6c-0.6-1.1-1.4-1.9-2.5-2.6c-1.2-0.7-2.8-1.2-4.6-1.3
			c-0.5,0-1.6,0-3.2,0H37.4v0.6c0.9,0,1.7,0.2,2.3,0.4c0.6,0.2,1.1,0.6,1.5,1c0.5,0.5,0.9,1.2,1.1,2c0.2,0.8,0.3,2,0.3,3.7v9.5
			c0,0,0.1,0.1,0.1,0.1c0.9,0.5,1.8,0.9,2.7,1.2c0.4,0.2,0.8,0.4,1.3,0.5c-0.3-0.5-0.6-1-0.9-1.4c-1.4-2.4-1.9-5-1.4-7.7
			c0.3-1.6,1-3,2.4-4c0.1-0.1,0.2-0.2,0.4-0.2c0.2,0.1,0.1,0.3,0,0.4c0,0.2,0,0.3,0,0.5c-0.1,2,0.6,3.7,2,5.1
			c1.2,1.3,2.5,2.5,3.7,3.8c1,1.1,2,2.3,2.7,3.7c0.1,0.3,0.3,0.3,0.5,0.1c0.7-0.4,1.4-0.7,2.2-0.6c1,0.1,2,0.3,2.7,1.1
			c0.2,0.2,0.5,0.2,0.4,0.5c-0.1,0.3-0.4,0.2-0.6,0.2c-0.7,0-0.9,0.2-1.2,0.8c-0.1,0.4-0.3,0.8-0.4,1.2c-0.4,1.2-0.8,2.5-1.5,3.6
			c-0.8,1.4-2,2.4-3.2,3.3c-0.1,0.1-0.3,0.1-0.2,0.2c0,0,0,0,0,0L46,81.2c0.5-0.5,0.8-1.1,0.7-1.9c-0.1-0.9-0.6-1.5-1.2-2.1
			c-0.9-1-2-1.7-3-2.5v2.8c0,1.7-0.1,2.9-0.3,3.7c-0.2,0.8-0.5,1.5-1.1,2c-0.4,0.5-1,0.8-1.5,1c-0.6,0.2-1.3,0.4-2.3,0.4v0.6h17.9
			c2.4,0,4.3-0.1,5.6-0.4c1.3-0.3,2.5-0.7,3.4-1.4c1.1-0.8,1.9-1.7,2.5-3c0.6-1.2,0.9-2.6,0.9-4.1C67.8,74.8,67.5,73.4,66.9,72.2z"
			/>
	</g>
	<g>
		<path class="st2" d="M101.9,85.6c0-10.3,0-20.7,0-31c0-1.9,0.1-3.5,2.2-4.3c-2.6,0-5.2,0-8,0c0,1.1,0,1.9,0,2.8
			c0,10.7,0,21.5,0,32.2c0,2.1-0.1,3.9-2.5,4.5c3.5,0,7,0,10.5,0C102,89.1,101.9,87.5,101.9,85.6z"/>
		<path class="st2" d="M111,72.4c-1.1,1.3-2.2,2.3-3,3.5c-0.4,0.6-0.5,1.8-0.2,2.5c1.9,3.5,4,6.8,6.1,10.2c0.4,0.6,1.1,1.3,1.7,1.3
			c2.4,0.1,4.9,0.1,6.9,0.1C118,84.8,115.2,78.3,111,72.4z"/>
		<path class="st2" d="M120.4,64.4c-2.5,0-5,0-7.1,0c0.4,1.3,0.8,2.6,1.2,3.9C116.5,67,118.4,65.7,120.4,64.4z"/>
	</g>
</g>
</svg>
