<?xml version="1.0" encoding="utf-8"?>
<!-- Generator: Adobe Illustrator 26.5.0, SVG Export Plug-In . SVG Version: 6.00 Build 0)  -->
<svg version="1.1" id="Layer_1" xmlns="http://www.w3.org/2000/svg" xmlns:xlink="http://www.w3.org/1999/xlink" x="0px" y="0px"
	 viewBox="0 0 250 128" style="enable-background:new 0 0 250 128;" xml:space="preserve">
<style type="text/css">
	.st0{fill:#0063A3;}
	.st1{fill:#F5852F;}
	.st2{fill:#FFFFFF;}
</style>
<g>
	<rect x="28.4" y="41.4" class="st0" width="193.2" height="49.3"/>
	<path class="st1" d="M53.7,73.4c0,0-0.5-0.6,14.3-0.7c8.1-0.1,19.5-0.4,27.6-0.4c10.5,0,23-0.2,34.5-0.3
		c14.4-0.1,31.5,0.3,45.3,0.4c15.5,0.2,26.1,0.4,26.5,1.1c0,0-2,0.2-5,0.3c-4.6,0.1-11.4,0.3-18.6,0.4c-11.6,0.2-22.8,0.2-39.4,0.3
		c-24.9,0.2-51.5,0-68.8-0.4c-5-0.1-9.5-0.2-12.6-0.4C55.8,73.7,54.6,73.6,53.7,73.4z"/>
	<g>
		<path class="st2" d="M73.6,61.2h2.8l-2.1,10.2h-2.8L73.6,61.2z M74.4,57.4h2.8l-0.5,2.5h-2.8L74.4,57.4z"/>
		<path class="st2" d="M81.7,71.4h-2.4l-2-10.2H80l0.7,4.5c0.2,1.2,0.3,2,0.4,2.4c0.1-0.1,0.3-0.5,0.7-1.2c0.4-0.7,0.6-1.2,0.7-1.3
			l2.5-4.3h3L81.7,71.4z"/>
		<path class="st2" d="M89.3,61.2h2.8l-2.1,10.2h-2.8L89.3,61.2z M90.1,57.4h2.8l-0.5,2.5h-2.8L90.1,57.4z"/>
		<path class="st2" d="M94.4,61.2h2.6l-0.3,1.3c0.7-0.6,1.3-1,1.8-1.2c0.6-0.2,1.2-0.4,1.8-0.4c0.8,0,1.5,0.2,2,0.7s0.7,1.1,0.7,1.9
			c0,0.4-0.1,1-0.3,2l-1.2,5.8h-2.8l1.2-5.8c0.2-0.9,0.3-1.4,0.3-1.5c0-0.4-0.1-0.6-0.3-0.8c-0.2-0.2-0.5-0.3-0.9-0.3
			c-0.4,0-0.9,0.2-1.3,0.5c-0.5,0.3-0.9,0.8-1.2,1.3c-0.2,0.4-0.4,1.2-0.7,2.4l-0.9,4.2h-2.8L94.4,61.2z"/>
		<path class="st2" d="M113.9,67.2H107c0,0.1,0,0.2,0,0.2c0,0.7,0.2,1.2,0.6,1.6c0.4,0.4,0.9,0.6,1.4,0.6c0.9,0,1.6-0.5,2.1-1.4
			l2.5,0.4c-0.5,1-1.1,1.7-1.9,2.2c-0.8,0.5-1.7,0.7-2.7,0.7c-1.4,0-2.5-0.4-3.3-1.3c-0.9-0.9-1.3-2-1.3-3.4c0-1.4,0.4-2.6,1.2-3.7
			c1.1-1.5,2.6-2.2,4.5-2.2c1.3,0,2.2,0.4,3,1.2c0.7,0.8,1.1,1.9,1.1,3.2C114.1,66.1,114,66.7,113.9,67.2z M111.6,65.5
			c0-0.1,0-0.2,0-0.3c0-0.8-0.2-1.3-0.5-1.7c-0.3-0.4-0.8-0.6-1.4-0.6s-1.1,0.2-1.5,0.6c-0.5,0.4-0.8,1.1-0.9,1.9H111.6z"/>
	</g>
	<g>
		<path class="st2" d="M142.5,61.2h2.6l-0.2,1c0.6-0.5,1.1-0.8,1.6-1c0.5-0.2,1-0.3,1.6-0.3c1.1,0,1.9,0.4,2.6,1.1
			c0.7,0.7,1,1.8,1,3.3c0,1.8-0.6,3.4-1.7,4.7c-1,1.1-2.1,1.6-3.4,1.6c-1.4,0-2.4-0.5-3.1-1.6l-1.1,5.3h-2.8L142.5,61.2z
			 M144.2,67.1c0,0.8,0.2,1.4,0.6,1.9c0.4,0.4,0.8,0.7,1.4,0.7c0.5,0,0.9-0.2,1.3-0.5s0.8-0.9,1.1-1.6c0.3-0.8,0.4-1.5,0.4-2.1
			c0-0.8-0.2-1.3-0.5-1.8c-0.4-0.4-0.8-0.6-1.4-0.6c-0.5,0-1,0.2-1.4,0.6c-0.4,0.4-0.8,0.9-1,1.7C144.3,65.9,144.2,66.5,144.2,67.1z
			"/>
		<path class="st2" d="M152.8,63.3l0.4-2h1.3l0.3-1.6l3.2-1.9l-0.7,3.5h1.7l-0.4,2h-1.7l-0.9,4.3c-0.2,0.8-0.2,1.2-0.2,1.3
			c0,0.2,0.1,0.4,0.2,0.5c0.1,0.1,0.4,0.2,0.7,0.2c0.1,0,0.4,0,0.9-0.1l-0.4,2c-0.5,0.1-1,0.1-1.5,0.1c-1,0-1.7-0.2-2.1-0.6
			c-0.4-0.4-0.7-0.9-0.7-1.6c0-0.3,0.1-1,0.4-2.2l0.9-4.1H152.8z"/>
		<path class="st2" d="M160.5,61.2h2.8l-2.1,10.2h-2.8L160.5,61.2z M161.3,57.4h2.8l-0.5,2.5h-2.8L161.3,57.4z"/>
		<path class="st2" d="M172.4,61.2h2.5L172,75.3h-2.8l1-4.8c-0.5,0.4-0.9,0.7-1.4,0.9c-0.4,0.2-0.9,0.3-1.5,0.3
			c-1.1,0-2-0.4-2.6-1.1c-0.7-0.7-1-1.8-1-3.2c0-1.1,0.2-2.2,0.7-3.2c0.4-1,1.1-1.8,1.8-2.4s1.6-0.8,2.6-0.8c1.5,0,2.5,0.6,3.2,1.8
			L172.4,61.2z M166.5,67.4c0,0.7,0.2,1.2,0.6,1.6c0.4,0.4,0.8,0.6,1.3,0.6c0.5,0,0.9-0.2,1.4-0.5c0.4-0.3,0.8-0.8,1.1-1.6
			c0.3-0.7,0.4-1.4,0.4-2.1c0-0.8-0.2-1.4-0.6-1.8c-0.4-0.4-0.8-0.6-1.4-0.6c-0.4,0-0.9,0.2-1.3,0.5c-0.4,0.3-0.8,0.9-1.1,1.6
			C166.6,65.9,166.5,66.7,166.5,67.4z"/>
		<path class="st2" d="M177.2,61.2h2.8l-1.3,6c-0.2,0.7-0.2,1.2-0.2,1.4c0,0.3,0.1,0.5,0.3,0.8c0.2,0.2,0.5,0.3,0.8,0.3
			c0.2,0,0.5,0,0.7-0.1c0.2-0.1,0.5-0.2,0.7-0.4c0.2-0.2,0.5-0.4,0.7-0.6c0.2-0.2,0.4-0.6,0.6-1c0.1-0.3,0.3-0.8,0.4-1.4l1-4.9h2.8
			l-2.1,10.2h-2.6l0.3-1.4c-1.1,1.1-2.4,1.6-3.7,1.6c-0.8,0-1.5-0.2-2-0.7c-0.5-0.5-0.7-1.1-0.7-1.9c0-0.4,0.1-1.1,0.3-2.1
			L177.2,61.2z"/>
		<path class="st2" d="M196.7,67.2h-6.9c0,0.1,0,0.2,0,0.2c0,0.7,0.2,1.2,0.6,1.6c0.4,0.4,0.9,0.6,1.4,0.6c0.9,0,1.6-0.5,2.1-1.4
			l2.5,0.4c-0.5,1-1.1,1.7-1.9,2.2c-0.8,0.5-1.7,0.7-2.7,0.7c-1.4,0-2.5-0.4-3.3-1.3c-0.9-0.9-1.3-2-1.3-3.4c0-1.4,0.4-2.6,1.2-3.7
			c1.1-1.5,2.6-2.2,4.5-2.2c1.3,0,2.2,0.4,3,1.2c0.7,0.8,1.1,1.9,1.1,3.2C196.9,66.1,196.8,66.7,196.7,67.2z M194.4,65.5
			c0-0.1,0-0.2,0-0.3c0-0.8-0.2-1.3-0.5-1.7c-0.3-0.4-0.8-0.6-1.4-0.6c-0.6,0-1.1,0.2-1.5,0.6c-0.5,0.4-0.8,1.1-0.9,1.9H194.4z"/>
	</g>
	<g>
		<path class="st2" d="M52.3,71.4l4.1-20.1h5.3c1.9,0,3.1,0.1,3.8,0.2c1.1,0.2,2.1,0.7,2.9,1.4c0.8,0.7,1.5,1.6,2,2.7
			c0.5,1.1,0.7,2.5,0.7,4.1c0,1.7-0.2,3.2-0.7,4.6c-0.5,1.4-1.2,2.6-2.1,3.7c-0.9,1.1-1.8,1.8-2.8,2.3c-1,0.5-1.9,0.8-3,1
			c-0.7,0.1-1.8,0.2-3.3,0.2H52.3z M57,68.2H59c1.5,0,2.6-0.1,3.2-0.3c0.8-0.2,1.5-0.7,2.2-1.3c0.7-0.7,1.3-1.6,1.8-2.8
			c0.5-1.2,0.8-2.6,0.8-4.2c0-1.3-0.2-2.3-0.6-3.1c-0.4-0.7-1-1.3-1.7-1.5c-0.5-0.2-1.4-0.3-2.6-0.3h-2.3L57,68.2z"/>
	</g>
	<g>
		<path class="st2" d="M121.5,63.6c0-1.7,0.3-3.5,1.1-5.4c0.9-2.4,2.2-4.1,3.9-5.4c1.7-1.2,3.8-1.8,6-1.8c2.4,0,4.3,0.8,5.9,2.3
			c1.5,1.5,2.3,3.6,2.3,6.2c0,2.4-0.5,4.5-1.6,6.5c-1.1,2-2.5,3.5-4.1,4.4c-1.6,0.9-3.4,1.4-5.4,1.4c-2.3,0-4.2-0.7-5.6-2.1
			C122.3,68.1,121.5,66.1,121.5,63.6z M125.5,63.5c0,1.5,0.4,2.7,1.3,3.5c0.9,0.9,1.9,1.3,3.2,1.3c1,0,2-0.3,3-1
			c1-0.7,1.8-1.7,2.6-3.2c0.7-1.5,1.1-3,1.1-4.6c0-1.6-0.4-2.9-1.3-3.8c-0.8-0.8-1.8-1.2-3.1-1.2c-1,0-2,0.3-3.1,1
			c-1,0.7-1.9,1.7-2.6,3.2C125.8,60.2,125.5,61.8,125.5,63.5z"/>
	</g>
	<g>
		<path class="st2" d="M110.7,81.2c0,0.9-0.3,1.7-0.8,2.3c-0.6,0.6-1.2,0.8-1.9,0.8c-0.7,0-1.3-0.3-1.8-0.8
			c-0.5-0.5-0.8-1.2-0.8-2.1c0-1,0.3-1.7,0.8-2.3c0.6-0.6,1.2-0.8,1.9-0.8c0.7,0,1.3,0.3,1.8,0.8C110.5,79.6,110.7,80.3,110.7,81.2z
			 M109.9,81.3c0-0.8-0.2-1.3-0.6-1.7c-0.4-0.4-0.8-0.6-1.4-0.6c-0.5,0-0.9,0.2-1.3,0.7c-0.4,0.4-0.6,1-0.6,1.7
			c0,0.8,0.2,1.3,0.6,1.7c0.4,0.4,0.9,0.6,1.4,0.6c0.5,0,0.9-0.2,1.3-0.7C109.8,82.6,109.9,82,109.9,81.3z"/>
		<path class="st2" d="M115.6,81.9c0,0.6-0.2,1.2-0.5,1.7c-0.4,0.5-0.9,0.7-1.5,0.7c-0.5,0-0.9-0.1-1.1-0.3h0c0,0.8,0,1.5,0,2.2
			h-0.8c0.1-0.8,0.1-1.7,0.1-2.9c0-1.4-0.1-2.5-0.2-3.3l0.8-0.1l0.1,0.4h0c0.3-0.3,0.7-0.5,1.4-0.5c0.6,0,1,0.2,1.3,0.6
			C115.4,80.8,115.6,81.3,115.6,81.9z M114.8,82c0-0.4-0.1-0.8-0.3-1.1c-0.2-0.3-0.5-0.5-1-0.5c-0.5,0-0.9,0.2-1.1,0.5
			c0,1,0.1,1.8,0.1,2.5c0.2,0.2,0.5,0.3,0.9,0.3c0.5,0,0.8-0.2,1.1-0.5C114.7,82.9,114.8,82.4,114.8,82z"/>
		<path class="st2" d="M118.8,83.5l-0.1,0.6c-0.2,0.1-0.4,0.1-0.7,0.1c-0.5,0-0.9-0.1-1.1-0.4c-0.2-0.3-0.3-0.7-0.3-1.4
			c0-0.4,0-1,0-1.7c-0.2,0-0.4,0-0.7,0l0-0.6c0.3,0,0.5,0,0.7,0c0-0.2,0-0.6,0-1.2l0.7-0.1c0,0.6-0.1,1-0.1,1.3c0.3,0,0.7,0,1.3,0
			l0,0.7c-0.5,0-0.9,0-1.3,0c0,0.4,0,0.9,0,1.5c0,0.6,0.1,1,0.2,1.2c0.1,0.2,0.4,0.3,0.7,0.3C118.4,83.6,118.6,83.6,118.8,83.5z"/>
		<path class="st2" d="M120.3,84.1h-0.8c0-0.6,0.1-1.2,0.1-2c0-0.8-0.1-1.5-0.2-2.1l0.9-0.1c0,0.6-0.1,1.4-0.1,2.2
			C120.2,82.8,120.3,83.5,120.3,84.1z M120.5,78.7c0,0.1,0,0.3-0.1,0.4c-0.1,0.1-0.2,0.2-0.4,0.2c-0.1,0-0.3,0-0.3-0.1
			c-0.1-0.1-0.1-0.2-0.1-0.3c0-0.1,0-0.3,0.1-0.4c0.1-0.1,0.2-0.2,0.4-0.2c0.1,0,0.3,0,0.3,0.1C120.4,78.4,120.5,78.5,120.5,78.7z"
			/>
		<path class="st2" d="M124.5,83.4l0,0.6c-0.2,0.1-0.6,0.2-0.9,0.2c-0.8,0-1.3-0.2-1.7-0.6c-0.4-0.4-0.6-0.9-0.6-1.5
			c0-0.6,0.2-1.2,0.6-1.6c0.4-0.4,1-0.7,1.7-0.7c0.3,0,0.6,0,0.8,0.1l-0.1,0.7c-0.3-0.1-0.6-0.2-0.9-0.2c-0.4,0-0.7,0.1-1,0.4
			c-0.2,0.3-0.4,0.6-0.4,1.1c0,0.5,0.1,0.9,0.4,1.2c0.3,0.3,0.7,0.5,1.2,0.5C123.8,83.6,124.1,83.6,124.5,83.4z"/>
		<path class="st2" d="M126,84.1h-0.8c0-0.6,0.1-1.2,0.1-2c0-0.8-0.1-1.5-0.2-2.1l0.9-0.1c0,0.6-0.1,1.4-0.1,2.2
			C126,82.8,126,83.5,126,84.1z M126.2,78.7c0,0.1,0,0.3-0.1,0.4c-0.1,0.1-0.2,0.2-0.4,0.2c-0.1,0-0.3,0-0.3-0.1
			c-0.1-0.1-0.1-0.2-0.1-0.3c0-0.1,0-0.3,0.1-0.4c0.1-0.1,0.2-0.2,0.4-0.2c0.1,0,0.3,0,0.3,0.1C126.2,78.4,126.2,78.5,126.2,78.7z"
			/>
		<path class="st2" d="M130.6,81.5c0,0.1,0,0.3,0,0.5l-3,0.1c0,0.4,0.2,0.8,0.5,1.1c0.3,0.3,0.7,0.4,1.2,0.4c0.4,0,0.9-0.1,1.2-0.2
			l-0.1,0.6c-0.3,0.1-0.7,0.2-1.2,0.2c-0.8,0-1.3-0.2-1.7-0.6c-0.4-0.4-0.6-0.9-0.6-1.5c0-0.6,0.2-1.2,0.5-1.6
			c0.4-0.5,0.8-0.7,1.5-0.7c0.6,0,1,0.2,1.3,0.5C130.5,80.6,130.6,81,130.6,81.5z M129.9,81.6c0-0.8-0.3-1.2-1-1.2
			c-0.7,0-1.1,0.4-1.2,1.3L129.9,81.6z"/>
		<path class="st2" d="M135.2,84.1h-0.8c0.1-0.8,0.1-1.6,0.1-2.5c0-0.4-0.1-0.8-0.3-0.9c-0.2-0.2-0.4-0.2-0.8-0.2
			c-0.4,0-0.8,0.1-1.1,0.4c0,1,0,2.1,0,3.2h-0.8c0-1,0.1-1.7,0.1-2.1c0-0.7-0.1-1.3-0.2-2l0.8-0.1l0.1,0.5h0
			c0.4-0.4,0.9-0.6,1.4-0.6c0.5,0,0.9,0.1,1.1,0.3c0.3,0.2,0.4,0.6,0.4,1.1c0,0.1,0,0.2,0,0.3c0,0.2,0,0.3,0,0.3
			C135.2,82.4,135.2,83.1,135.2,84.1z"/>
		<path class="st2" d="M139.9,84.1h-0.8c0.1-0.8,0.1-1.6,0.1-2.5c0-0.4-0.1-0.8-0.3-0.9c-0.2-0.2-0.4-0.2-0.8-0.2
			c-0.4,0-0.8,0.1-1.1,0.4c0,1,0,2.1,0,3.2h-0.8c0-1,0.1-1.7,0.1-2.1c0-0.7-0.1-1.3-0.2-2l0.8-0.1l0.1,0.5h0
			c0.4-0.4,0.9-0.6,1.4-0.6c0.5,0,0.9,0.1,1.1,0.3c0.3,0.2,0.4,0.6,0.4,1.1c0,0.1,0,0.2,0,0.3c0,0.2,0,0.3,0,0.3
			C139.9,82.4,139.9,83.1,139.9,84.1z"/>
		<path class="st2" d="M144.5,81.5c0,0.1,0,0.3,0,0.5l-3,0.1c0,0.4,0.2,0.8,0.5,1.1c0.3,0.3,0.7,0.4,1.2,0.4c0.4,0,0.9-0.1,1.2-0.2
			l-0.1,0.6c-0.3,0.1-0.7,0.2-1.2,0.2c-0.8,0-1.3-0.2-1.7-0.6c-0.4-0.4-0.6-0.9-0.6-1.5c0-0.6,0.2-1.2,0.5-1.6
			c0.4-0.5,0.8-0.7,1.5-0.7c0.6,0,1,0.2,1.3,0.5C144.4,80.6,144.5,81,144.5,81.5z M143.8,81.6c0-0.8-0.3-1.2-1-1.2
			c-0.7,0-1.1,0.4-1.2,1.3L143.8,81.6z"/>
		<path class="st2" d="M152.4,81.2c0,0.9-0.3,1.7-0.8,2.3c-0.6,0.6-1.2,0.8-1.9,0.8c-0.7,0-1.3-0.3-1.8-0.8
			c-0.5-0.5-0.8-1.2-0.8-2.1c0-1,0.3-1.7,0.8-2.3s1.2-0.8,1.9-0.8c0.7,0,1.3,0.3,1.8,0.8C152.1,79.6,152.4,80.3,152.4,81.2z
			 M151.6,81.3c0-0.8-0.2-1.3-0.6-1.7c-0.4-0.4-0.8-0.6-1.4-0.6c-0.5,0-0.9,0.2-1.3,0.7s-0.6,1-0.6,1.7c0,0.8,0.2,1.3,0.6,1.7
			c0.4,0.4,0.9,0.6,1.4,0.6c0.5,0,0.9-0.2,1.3-0.7C151.4,82.6,151.6,82,151.6,81.3z"/>
		<path class="st2" d="M157.2,81.9c0,0.6-0.2,1.2-0.5,1.7c-0.4,0.5-0.9,0.7-1.5,0.7c-0.5,0-0.9-0.1-1.1-0.3h0c0,0.8,0,1.5,0,2.2
			h-0.8c0.1-0.8,0.1-1.7,0.1-2.9c0-1.4-0.1-2.5-0.2-3.3l0.8-0.1l0.1,0.4h0c0.3-0.3,0.7-0.5,1.4-0.5c0.6,0,1,0.2,1.3,0.6
			C157.1,80.8,157.2,81.3,157.2,81.9z M156.4,82c0-0.4-0.1-0.8-0.3-1.1c-0.2-0.3-0.5-0.5-1-0.5c-0.5,0-0.9,0.2-1.1,0.5
			c0,1,0.1,1.8,0.1,2.5c0.2,0.2,0.5,0.3,0.9,0.3c0.5,0,0.8-0.2,1.1-0.5C156.3,82.9,156.4,82.4,156.4,82z"/>
		<path class="st2" d="M160.5,83.5l-0.1,0.6c-0.2,0.1-0.4,0.1-0.7,0.1c-0.5,0-0.9-0.1-1.1-0.4c-0.2-0.3-0.3-0.7-0.3-1.4
			c0-0.4,0-1,0-1.7c-0.2,0-0.4,0-0.7,0l0-0.6c0.3,0,0.5,0,0.7,0c0-0.2,0-0.6,0-1.2l0.7-0.1c0,0.6-0.1,1-0.1,1.3c0.3,0,0.7,0,1.3,0
			l0,0.7c-0.5,0-0.9,0-1.3,0c0,0.4,0,0.9,0,1.5c0,0.6,0.1,1,0.2,1.2c0.1,0.2,0.4,0.3,0.7,0.3C160.1,83.6,160.3,83.6,160.5,83.5z"/>
		<path class="st2" d="M165.2,81.9c0,0.7-0.2,1.3-0.6,1.7c-0.4,0.4-0.9,0.6-1.5,0.6c-0.5,0-1-0.2-1.4-0.6c-0.4-0.4-0.6-0.9-0.6-1.6
			c0-0.8,0.2-1.3,0.6-1.8c0.4-0.4,0.9-0.6,1.5-0.6c0.5,0,1,0.2,1.4,0.6C165,80.7,165.2,81.2,165.2,81.9z M164.4,82.1
			c0-0.5-0.1-0.9-0.3-1.2c-0.2-0.4-0.6-0.5-1-0.5c-0.4,0-0.7,0.2-1,0.5c-0.2,0.3-0.3,0.7-0.3,1.2c0,0.5,0.1,0.9,0.3,1.2
			c0.2,0.4,0.6,0.5,1,0.5c0.4,0,0.7-0.2,1-0.5C164.3,82.9,164.4,82.5,164.4,82.1z"/>
		<path class="st2" d="M171.5,81.6c0-0.5-0.1-0.8-0.2-0.9c-0.2-0.1-0.4-0.2-0.8-0.2c-0.3,0-0.6,0.2-1,0.5c0,0.4,0,0.7,0,1
			c0,0.5,0,1.2,0,2.2h-0.8c0.1-0.8,0.1-1.7,0.1-2.5c0-0.5-0.1-0.8-0.2-0.9c-0.2-0.1-0.4-0.2-0.8-0.2c-0.4,0-0.7,0.2-1,0.5
			c0,0.9,0,2,0,3.2H166c0.1-1,0.1-1.7,0.1-2.1c0-0.7-0.1-1.3-0.2-2l0.8-0.1l0.1,0.5h0c0.4-0.4,0.8-0.6,1.3-0.6
			c0.7,0,1.1,0.2,1.3,0.6h0c0.4-0.4,0.9-0.6,1.3-0.6c0.5,0,0.9,0.1,1.1,0.3c0.3,0.2,0.4,0.6,0.4,1.1c0,0.1,0,0.2,0,0.3
			c0,0.2,0,0.3,0,0.3c0,0.5,0,1.2,0,2.2h-0.8C171.5,83.3,171.5,82.5,171.5,81.6z"/>
		<path class="st2" d="M176.8,81.5c0,0.1,0,0.3,0,0.5l-3,0.1c0,0.4,0.2,0.8,0.5,1.1c0.3,0.3,0.7,0.4,1.2,0.4c0.4,0,0.9-0.1,1.2-0.2
			l-0.1,0.6c-0.3,0.1-0.7,0.2-1.2,0.2c-0.8,0-1.3-0.2-1.7-0.6c-0.4-0.4-0.6-0.9-0.6-1.5c0-0.6,0.2-1.2,0.5-1.6
			c0.4-0.5,0.8-0.7,1.5-0.7c0.6,0,1,0.2,1.3,0.5C176.7,80.6,176.8,81,176.8,81.5z M176.1,81.6c0-0.8-0.3-1.2-1-1.2
			c-0.7,0-1.1,0.4-1.2,1.3L176.1,81.6z M176.6,78c0,0-0.2,0.3-0.6,0.7c-0.4,0.4-0.6,0.7-0.6,0.7h-0.5c0,0,0.1-0.3,0.4-0.7
			c0.3-0.4,0.4-0.7,0.4-0.7H176.6z"/>
		<path class="st2" d="M180.1,83.5l-0.1,0.6c-0.2,0.1-0.4,0.1-0.7,0.1c-0.5,0-0.9-0.1-1.1-0.4c-0.2-0.3-0.3-0.7-0.3-1.4
			c0-0.4,0-1,0-1.7c-0.2,0-0.4,0-0.7,0l0-0.6c0.3,0,0.5,0,0.7,0c0-0.2,0-0.6,0-1.2l0.7-0.1c0,0.6-0.1,1-0.1,1.3c0.3,0,0.7,0,1.3,0
			l0,0.7c-0.5,0-0.9,0-1.3,0c0,0.4,0,0.9,0,1.5c0,0.6,0.1,1,0.2,1.2c0.1,0.2,0.4,0.3,0.7,0.3C179.7,83.6,179.8,83.6,180.1,83.5z"/>
		<path class="st2" d="M183.4,80l-0.2,0.7c-0.2-0.1-0.4-0.1-0.6-0.1c-0.5,0-0.9,0.3-1.1,0.8c0,1.3,0,2.3,0,2.8h-0.8
			c0-0.9,0.1-1.6,0.1-2.1c0-0.7-0.1-1.4-0.2-2l0.8-0.1c0.1,0.3,0.1,0.5,0.1,0.6h0c0.3-0.5,0.7-0.7,1.1-0.7
			C182.8,79.8,183.1,79.9,183.4,80z"/>
		<path class="st2" d="M184.6,84.1h-0.8c0-0.6,0.1-1.2,0.1-2c0-0.8-0.1-1.5-0.2-2.1l0.9-0.1c0,0.6-0.1,1.4-0.1,2.2
			C184.5,82.8,184.5,83.5,184.6,84.1z M184.8,78.7c0,0.1,0,0.3-0.1,0.4c-0.1,0.1-0.2,0.2-0.4,0.2c-0.1,0-0.3,0-0.3-0.1
			c-0.1-0.1-0.1-0.2-0.1-0.3c0-0.1,0-0.3,0.1-0.4c0.1-0.1,0.2-0.2,0.4-0.2c0.1,0,0.3,0,0.3,0.1C184.7,78.4,184.8,78.5,184.8,78.7z"
			/>
		<path class="st2" d="M188.4,82.9c0,0.9-0.5,1.3-1.6,1.3c-0.5,0-0.9,0-1.3-0.1l0.1-0.6c0.4,0.1,0.8,0.2,1.2,0.2c0.6,0,1-0.2,1-0.5
			c0-0.2-0.1-0.3-0.2-0.4c-0.1-0.1-0.4-0.2-0.7-0.3c-0.4-0.2-0.7-0.3-0.9-0.5c-0.3-0.2-0.4-0.5-0.4-0.8c0-0.3,0.1-0.6,0.4-0.9
			c0.3-0.2,0.6-0.4,1.1-0.4c0.5,0,0.9,0,1.2,0.1l-0.1,0.6c-0.3-0.1-0.7-0.2-1.1-0.2c-0.6,0-0.8,0.2-0.8,0.5c0,0.2,0.1,0.3,0.2,0.4
			c0.1,0.1,0.4,0.2,0.7,0.4c0.4,0.2,0.7,0.3,0.9,0.5C188.2,82.3,188.4,82.6,188.4,82.9z"/>
		<path class="st2" d="M191.6,83.5l-0.1,0.6c-0.2,0.1-0.4,0.1-0.7,0.1c-0.5,0-0.9-0.1-1.1-0.4c-0.2-0.3-0.3-0.7-0.3-1.4
			c0-0.4,0-1,0-1.7c-0.2,0-0.4,0-0.7,0l0-0.6c0.3,0,0.5,0,0.7,0c0-0.2,0-0.6,0-1.2l0.7-0.1c0,0.6-0.1,1-0.1,1.3c0.3,0,0.7,0,1.3,0
			l0,0.7c-0.5,0-0.9,0-1.3,0c0,0.4,0,0.9,0,1.5c0,0.6,0.1,1,0.2,1.2s0.4,0.3,0.7,0.3C191.2,83.6,191.4,83.6,191.6,83.5z"/>
		<path class="st2" d="M195.9,81.5c0,0.1,0,0.3,0,0.5l-3,0.1c0,0.4,0.2,0.8,0.5,1.1s0.7,0.4,1.2,0.4c0.4,0,0.9-0.1,1.2-0.2l-0.1,0.6
			c-0.3,0.1-0.7,0.2-1.2,0.2c-0.8,0-1.3-0.2-1.7-0.6c-0.4-0.4-0.6-0.9-0.6-1.5c0-0.6,0.2-1.2,0.5-1.6c0.4-0.5,0.8-0.7,1.5-0.7
			c0.6,0,1,0.2,1.3,0.5C195.7,80.6,195.9,81,195.9,81.5z M195.1,81.6c0-0.8-0.3-1.2-1-1.2c-0.7,0-1.1,0.4-1.2,1.3L195.1,81.6z"/>
	</g>
</g>
</svg>
