<?xml version="1.0" encoding="utf-8"?>
<!-- Generator: Adobe Illustrator 26.5.0, SVG Export Plug-In . SVG Version: 6.00 Build 0)  -->
<svg version="1.1" id="Layer_1" xmlns="http://www.w3.org/2000/svg" xmlns:xlink="http://www.w3.org/1999/xlink" x="0px" y="0px"
	 viewBox="0 0 250 128" style="enable-background:new 0 0 250 128;" xml:space="preserve">
<style type="text/css">
	.st0{clip-path:url(#SVGID_00000021808480299436100220000000165987420161444240_);}
	.st1{fill:#0A79BE;}
	.st2{font-family:'Courier';}
	.st3{font-size:4.5739px;}
	.st4{fill:#101418;}
	.st5{font-family:'AvantGardeITCbyBT-Book';}
	.st6{font-size:4.9003px;}
	.st7{clip-path:url(#SVGID_00000021808480299436100220000000165987420161444240_);fill:#F4C43C;}
	.st8{clip-path:url(#SVGID_00000021808480299436100220000000165987420161444240_);fill:#FFFFFF;}
	.st9{clip-path:url(#SVGID_00000011020771701252802260000004551952914377825706_);fill:#EA1E26;}
	.st10{clip-path:url(#SVGID_00000011020771701252802260000004551952914377825706_);fill:#0F91D0;}
	.st11{clip-path:url(#SVGID_00000011020771701252802260000004551952914377825706_);fill:#F4C43C;}
</style>
<g>
	<g>
		<defs>
			<rect id="SVGID_1_" x="60.4" y="20.6" width="129.1" height="86.6"/>
		</defs>
		<clipPath id="SVGID_00000104681584612150911960000012445666628007927191_">
			<use xlink:href="#SVGID_1_"  style="overflow:visible;"/>
		</clipPath>
		<g style="clip-path:url(#SVGID_00000104681584612150911960000012445666628007927191_);">
			<text transform="matrix(1 0 0 1.3993 113.7234 42.7739)" class="st1 st2 st3"> </text>
		</g>
		<g style="clip-path:url(#SVGID_00000104681584612150911960000012445666628007927191_);">
			<text transform="matrix(1 0 0 1.1429 110.4236 105.0015)" class="st4 st5 st6"> </text>
		</g>
		<path style="clip-path:url(#SVGID_00000104681584612150911960000012445666628007927191_);fill:#F4C43C;" d="M129.7,44.8
			c-0.4,0.2-1.1,0.5-1.7,0.8c-0.6,0.2-19.9,10.3-26.1,12.9c-0.3,0.1,0.7,3.8,0.2,3.2c-6.1,2.6-8.6,1.9-16.5,2.3
			c-4.4-4.6-7.1-10.8-7.1-17.7c0-14.2,11.5-25.7,25.7-25.7C117.8,20.6,128.9,31.3,129.7,44.8"/>
		<path style="clip-path:url(#SVGID_00000104681584612150911960000012445666628007927191_);fill:#FFFFFF;" d="M86,51.3
			c0,0,0.5-6,8.8-5.8c8.3,0.2,3.6,0.1,3.6,0.1s9-0.1,8.9,5.7c-0.1,5.8,0,5.7,0,16.2H94.9V77c0,0,0,1.6,1.2,1.6c0.7,0,0.7,0,1,0
			c0.3,0,1.2-0.4,1.2-1.6l0-8.2l9,0l0,8.6c0,0,0.1,6.7-9,6.7h-3.5c0,0-8.9,0.4-8.9-6.7V51.3z"/>
		<path style="clip-path:url(#SVGID_00000104681584612150911960000012445666628007927191_);fill:#FFFFFF;" d="M120.4,38h-9.1l0,7.8
			h-4l0,5.6l4.1,0l0,24.6c0,0-0.9,8.2,6.1,8.2l8.5,0l0-6.7c0,0-1.2,0-2.5,0c-1.5,0-3.1-0.2-3.1-1.7c0-1.8,0-24.4,0-24.4l5.1,0v-5.6
			l-5,0L120.4,38z"/>
		<path style="clip-path:url(#SVGID_00000104681584612150911960000012445666628007927191_);fill:#FFFFFF;" d="M137.4,46.7
			c0,0-2.2-1.4-4-1.3c-1.9,0-2.8,0-2.8,0s-5.2,0.6-5.3,3.6c-0.1,2.4,0,18.6,0,26c0,1.9,0,3.2,0,3.6c0,0,0.6,5.9,7.9,5.9
			c4,0,5.6-1.8,5.6-1.8l1,1.4l6.6,0h0.3c0,0-0.3-4-0.3-5.5V36.7l-9,0L137.4,46.7z"/>
	</g>
	<g>
		<path class="st4" d="M90.2,96.8l0.6,0.1c-0.1,0.4-0.3,0.6-0.5,0.8c-0.3,0.2-0.6,0.3-1,0.3c-0.5,0-0.9-0.2-1.2-0.5
			c-0.3-0.3-0.4-0.7-0.4-1.3c0-0.6,0.1-1,0.4-1.3c0.3-0.3,0.7-0.5,1.2-0.5c0.5,0,0.8,0.2,1.1,0.5c0.3,0.3,0.4,0.8,0.4,1.3
			c0,0,0,0.1,0,0.2h-2.6c0,0.4,0.1,0.7,0.3,0.9c0.2,0.2,0.4,0.3,0.7,0.3c0.2,0,0.4-0.1,0.5-0.2C90,97.3,90.1,97.1,90.2,96.8z
			 M88.3,95.9h1.9c0-0.3-0.1-0.5-0.2-0.6c-0.2-0.2-0.4-0.3-0.7-0.3c-0.3,0-0.5,0.1-0.7,0.3C88.4,95.3,88.3,95.6,88.3,95.9z"/>
		<path class="st4" d="M91.5,97.9v-3.4H92V95c0.3-0.4,0.6-0.6,1.1-0.6c0.2,0,0.4,0,0.6,0.1c0.2,0.1,0.3,0.2,0.4,0.3s0.1,0.3,0.2,0.4
			c0,0.1,0,0.3,0,0.6v2.1h-0.6v-2.1c0-0.2,0-0.4-0.1-0.5c0-0.1-0.1-0.2-0.2-0.3c-0.1-0.1-0.3-0.1-0.4-0.1c-0.2,0-0.5,0.1-0.6,0.2
			c-0.2,0.2-0.3,0.5-0.3,0.9v1.9H91.5z"/>
		<path class="st4" d="M96.5,97.4l0.1,0.5c-0.2,0-0.3,0.1-0.4,0.1c-0.2,0-0.4,0-0.5-0.1c-0.1-0.1-0.2-0.2-0.2-0.3
			c0-0.1-0.1-0.3-0.1-0.7v-2h-0.4v-0.5h0.4v-0.9l0.6-0.3v1.2h0.6V95h-0.6v2c0,0.2,0,0.3,0,0.3c0,0,0.1,0.1,0.1,0.1c0,0,0.1,0,0.2,0
			C96.3,97.4,96.4,97.4,96.5,97.4z"/>
		<path class="st4" d="M97,97.9v-3.4h0.5V95c0.1-0.2,0.3-0.4,0.4-0.5c0.1-0.1,0.2-0.1,0.4-0.1c0.2,0,0.4,0.1,0.6,0.2l-0.2,0.5
			c-0.1-0.1-0.3-0.1-0.4-0.1c-0.1,0-0.2,0-0.3,0.1c-0.1,0.1-0.2,0.2-0.2,0.3c-0.1,0.2-0.1,0.4-0.1,0.7v1.8H97z"/>
		<path class="st4" d="M101.6,96.8l0.6,0.1c-0.1,0.4-0.3,0.6-0.5,0.8c-0.3,0.2-0.6,0.3-1,0.3c-0.5,0-0.9-0.2-1.2-0.5
			c-0.3-0.3-0.4-0.7-0.4-1.3c0-0.6,0.1-1,0.4-1.3c0.3-0.3,0.7-0.5,1.2-0.5c0.5,0,0.8,0.2,1.1,0.5c0.3,0.3,0.4,0.8,0.4,1.3
			c0,0,0,0.1,0,0.2h-2.6c0,0.4,0.1,0.7,0.3,0.9c0.2,0.2,0.4,0.3,0.7,0.3c0.2,0,0.4-0.1,0.5-0.2C101.4,97.3,101.5,97.1,101.6,96.8z
			 M99.7,95.9h1.9c0-0.3-0.1-0.5-0.2-0.6c-0.2-0.2-0.4-0.3-0.7-0.3c-0.3,0-0.5,0.1-0.7,0.3C99.8,95.3,99.7,95.6,99.7,95.9z"/>
		<path class="st4" d="M102.9,99.3v-4.8h0.5v0.4c0.1-0.2,0.3-0.3,0.4-0.4c0.2-0.1,0.3-0.1,0.6-0.1c0.3,0,0.6,0.1,0.8,0.2
			c0.2,0.2,0.4,0.4,0.5,0.6c0.1,0.3,0.2,0.6,0.2,0.9c0,0.4-0.1,0.7-0.2,1c-0.1,0.3-0.3,0.5-0.5,0.6c-0.2,0.1-0.5,0.2-0.8,0.2
			c-0.2,0-0.4,0-0.5-0.1c-0.2-0.1-0.3-0.2-0.4-0.3v1.7H102.9z M103.5,96.2c0,0.4,0.1,0.8,0.3,1c0.2,0.2,0.4,0.3,0.7,0.3
			c0.3,0,0.5-0.1,0.7-0.3c0.2-0.2,0.3-0.6,0.3-1c0-0.4-0.1-0.8-0.3-1c-0.2-0.2-0.4-0.3-0.6-0.3c-0.2,0-0.5,0.1-0.7,0.3
			C103.6,95.5,103.5,95.8,103.5,96.2z"/>
		<path class="st4" d="M106.6,97.9v-3.4h0.5V95c0.1-0.2,0.3-0.4,0.4-0.5c0.1-0.1,0.2-0.1,0.4-0.1c0.2,0,0.4,0.1,0.6,0.2l-0.2,0.5
			c-0.1-0.1-0.3-0.1-0.4-0.1c-0.1,0-0.2,0-0.3,0.1c-0.1,0.1-0.2,0.2-0.2,0.3c-0.1,0.2-0.1,0.4-0.1,0.7v1.8H106.6z"/>
		<path class="st4" d="M108.8,93.9v-0.7h0.6v0.7H108.8z M108.8,97.9v-3.4h0.6v3.4H108.8z"/>
		<path class="st4" d="M110.1,96.9l0.6-0.1c0,0.2,0.1,0.4,0.3,0.5c0.1,0.1,0.4,0.2,0.6,0.2c0.3,0,0.5-0.1,0.6-0.2
			c0.1-0.1,0.2-0.2,0.2-0.4c0-0.1-0.1-0.2-0.2-0.3c-0.1-0.1-0.3-0.1-0.6-0.2c-0.4-0.1-0.7-0.2-0.9-0.3c-0.2-0.1-0.3-0.2-0.4-0.3
			c-0.1-0.1-0.1-0.3-0.1-0.5c0-0.2,0-0.3,0.1-0.4c0.1-0.1,0.2-0.2,0.3-0.3c0.1-0.1,0.2-0.1,0.4-0.2s0.3-0.1,0.5-0.1
			c0.3,0,0.5,0,0.7,0.1c0.2,0.1,0.4,0.2,0.5,0.3c0.1,0.1,0.2,0.3,0.2,0.5l-0.6,0.1c0-0.2-0.1-0.3-0.2-0.4c-0.1-0.1-0.3-0.1-0.5-0.1
			c-0.3,0-0.5,0-0.6,0.1c-0.1,0.1-0.2,0.2-0.2,0.3c0,0.1,0,0.1,0.1,0.2c0,0.1,0.1,0.1,0.2,0.2c0.1,0,0.2,0.1,0.5,0.1
			c0.4,0.1,0.7,0.2,0.9,0.3c0.2,0.1,0.3,0.2,0.4,0.3c0.1,0.1,0.1,0.3,0.1,0.5c0,0.2-0.1,0.4-0.2,0.5c-0.1,0.2-0.3,0.3-0.5,0.4
			c-0.2,0.1-0.5,0.1-0.7,0.1c-0.4,0-0.8-0.1-1-0.3C110.3,97.5,110.1,97.3,110.1,96.9z"/>
		<path class="st4" d="M116,96.8l0.6,0.1c-0.1,0.4-0.3,0.6-0.5,0.8c-0.3,0.2-0.6,0.3-1,0.3c-0.5,0-0.9-0.2-1.2-0.5
			c-0.3-0.3-0.4-0.7-0.4-1.3c0-0.6,0.1-1,0.4-1.3c0.3-0.3,0.7-0.5,1.2-0.5c0.5,0,0.8,0.2,1.1,0.5c0.3,0.3,0.4,0.8,0.4,1.3
			c0,0,0,0.1,0,0.2H114c0,0.4,0.1,0.7,0.3,0.9c0.2,0.2,0.4,0.3,0.7,0.3c0.2,0,0.4-0.1,0.5-0.2C115.7,97.3,115.9,97.1,116,96.8z
			 M114,95.9h1.9c0-0.3-0.1-0.5-0.2-0.6c-0.2-0.2-0.4-0.3-0.7-0.3c-0.3,0-0.5,0.1-0.7,0.3C114.2,95.3,114.1,95.6,114,95.9z"/>
		<path class="st4" d="M117.1,96.9l0.6-0.1c0,0.2,0.1,0.4,0.3,0.5c0.1,0.1,0.4,0.2,0.6,0.2c0.3,0,0.5-0.1,0.6-0.2
			c0.1-0.1,0.2-0.2,0.2-0.4c0-0.1-0.1-0.2-0.2-0.3c-0.1-0.1-0.3-0.1-0.6-0.2c-0.4-0.1-0.7-0.2-0.9-0.3c-0.2-0.1-0.3-0.2-0.4-0.3
			c-0.1-0.1-0.1-0.3-0.1-0.5c0-0.2,0-0.3,0.1-0.4c0.1-0.1,0.2-0.2,0.3-0.3c0.1-0.1,0.2-0.1,0.4-0.2s0.3-0.1,0.5-0.1
			c0.3,0,0.5,0,0.7,0.1c0.2,0.1,0.4,0.2,0.5,0.3c0.1,0.1,0.2,0.3,0.2,0.5l-0.6,0.1c0-0.2-0.1-0.3-0.2-0.4c-0.1-0.1-0.3-0.1-0.5-0.1
			c-0.3,0-0.5,0-0.6,0.1c-0.1,0.1-0.2,0.2-0.2,0.3c0,0.1,0,0.1,0.1,0.2c0,0.1,0.1,0.1,0.2,0.2c0.1,0,0.2,0.1,0.5,0.1
			c0.4,0.1,0.7,0.2,0.9,0.3c0.2,0.1,0.3,0.2,0.4,0.3c0.1,0.1,0.1,0.3,0.1,0.5c0,0.2-0.1,0.4-0.2,0.5c-0.1,0.2-0.3,0.3-0.5,0.4
			c-0.2,0.1-0.5,0.1-0.7,0.1c-0.4,0-0.8-0.1-1-0.3C117.3,97.5,117.1,97.3,117.1,96.9z"/>
		<path class="st4" d="M123.7,97.4l0.1,0.5c-0.2,0-0.3,0.1-0.4,0.1c-0.2,0-0.4,0-0.5-0.1c-0.1-0.1-0.2-0.2-0.2-0.3
			c0-0.1-0.1-0.3-0.1-0.7v-2h-0.4v-0.5h0.4v-0.9l0.6-0.3v1.2h0.6V95h-0.6v2c0,0.2,0,0.3,0,0.3c0,0,0.1,0.1,0.1,0.1c0,0,0.1,0,0.2,0
			C123.5,97.4,123.6,97.4,123.7,97.4z"/>
		<path class="st4" d="M126.6,96.8l0.6,0.1c-0.1,0.4-0.3,0.6-0.5,0.8c-0.3,0.2-0.6,0.3-1,0.3c-0.5,0-0.9-0.2-1.2-0.5
			c-0.3-0.3-0.4-0.7-0.4-1.3c0-0.6,0.1-1,0.4-1.3c0.3-0.3,0.7-0.5,1.2-0.5c0.5,0,0.8,0.2,1.1,0.5c0.3,0.3,0.4,0.8,0.4,1.3
			c0,0,0,0.1,0,0.2h-2.6c0,0.4,0.1,0.7,0.3,0.9c0.2,0.2,0.4,0.3,0.7,0.3c0.2,0,0.4-0.1,0.5-0.2C126.4,97.3,126.5,97.1,126.6,96.8z
			 M124.7,95.9h1.9c0-0.3-0.1-0.5-0.2-0.6c-0.2-0.2-0.4-0.3-0.7-0.3c-0.3,0-0.5,0.1-0.7,0.3C124.8,95.3,124.7,95.6,124.7,95.9z"/>
		<path class="st4" d="M128,97.9v-3.4h0.5V95c0.1-0.2,0.3-0.4,0.4-0.5c0.1-0.1,0.2-0.1,0.4-0.1c0.2,0,0.4,0.1,0.6,0.2l-0.2,0.5
			c-0.1-0.1-0.3-0.1-0.4-0.1c-0.1,0-0.2,0-0.3,0.1c-0.1,0.1-0.2,0.2-0.2,0.3c-0.1,0.2-0.1,0.4-0.1,0.7v1.8H128z"/>
		<path class="st4" d="M130.2,97.9v-3.4h0.5V95c0.1-0.2,0.3-0.4,0.4-0.5c0.1-0.1,0.2-0.1,0.4-0.1c0.2,0,0.4,0.1,0.6,0.2l-0.2,0.5
			c-0.1-0.1-0.3-0.1-0.4-0.1c-0.1,0-0.2,0-0.3,0.1c-0.1,0.1-0.2,0.2-0.2,0.3c-0.1,0.2-0.1,0.4-0.1,0.7v1.8H130.2z"/>
		<path class="st4" d="M132.4,93.9v-0.7h0.6v0.7H132.4z M132.4,97.9v-3.4h0.6v3.4H132.4z"/>
		<path class="st4" d="M135.1,97.4l0.1,0.5c-0.2,0-0.3,0.1-0.4,0.1c-0.2,0-0.4,0-0.5-0.1c-0.1-0.1-0.2-0.2-0.2-0.3
			c0-0.1-0.1-0.3-0.1-0.7v-2h-0.4v-0.5h0.4v-0.9l0.6-0.3v1.2h0.6V95h-0.6v2c0,0.2,0,0.3,0,0.3c0,0,0.1,0.1,0.1,0.1c0,0,0.1,0,0.2,0
			C134.9,97.4,135,97.4,135.1,97.4z"/>
		<path class="st4" d="M135.5,96.2c0-0.6,0.2-1.1,0.5-1.4c0.3-0.3,0.7-0.4,1.1-0.4c0.5,0,0.9,0.2,1.2,0.5c0.3,0.3,0.4,0.7,0.4,1.3
			c0,0.4-0.1,0.8-0.2,1c-0.1,0.3-0.3,0.5-0.6,0.6c-0.3,0.1-0.5,0.2-0.8,0.2c-0.5,0-0.9-0.2-1.2-0.5
			C135.6,97.2,135.5,96.8,135.5,96.2z M136.1,96.2c0,0.4,0.1,0.8,0.3,1c0.2,0.2,0.4,0.3,0.7,0.3c0.3,0,0.5-0.1,0.7-0.3
			c0.2-0.2,0.3-0.6,0.3-1c0-0.4-0.1-0.7-0.3-1c-0.2-0.2-0.4-0.3-0.7-0.3c-0.3,0-0.5,0.1-0.7,0.3C136.2,95.4,136.1,95.8,136.1,96.2z"
			/>
		<path class="st4" d="M139.4,93.9v-0.7h0.6v0.7H139.4z M139.4,97.9v-3.4h0.6v3.4H139.4z"/>
		<path class="st4" d="M140.8,97.9v-3.4h0.5V95c0.1-0.2,0.3-0.4,0.4-0.5c0.1-0.1,0.2-0.1,0.4-0.1c0.2,0,0.4,0.1,0.6,0.2l-0.2,0.5
			c-0.1-0.1-0.3-0.1-0.4-0.1c-0.1,0-0.2,0-0.3,0.1c-0.1,0.1-0.2,0.2-0.2,0.3c-0.1,0.2-0.1,0.4-0.1,0.7v1.8H140.8z"/>
		<path class="st4" d="M145.4,96.8l0.6,0.1c-0.1,0.4-0.3,0.6-0.5,0.8c-0.3,0.2-0.6,0.3-1,0.3c-0.5,0-0.9-0.2-1.2-0.5
			c-0.3-0.3-0.4-0.7-0.4-1.3c0-0.6,0.1-1,0.4-1.3c0.3-0.3,0.7-0.5,1.2-0.5c0.5,0,0.8,0.2,1.1,0.5c0.3,0.3,0.4,0.8,0.4,1.3
			c0,0,0,0.1,0,0.2h-2.6c0,0.4,0.1,0.7,0.3,0.9c0.2,0.2,0.4,0.3,0.7,0.3c0.2,0,0.4-0.1,0.5-0.2C145.2,97.3,145.3,97.1,145.4,96.8z
			 M143.5,95.9h1.9c0-0.3-0.1-0.5-0.2-0.6c-0.2-0.2-0.4-0.3-0.7-0.3c-0.3,0-0.5,0.1-0.7,0.3C143.6,95.3,143.5,95.6,143.5,95.9z"/>
		<path class="st4" d="M146.5,96.9l0.6-0.1c0,0.2,0.1,0.4,0.3,0.5c0.1,0.1,0.4,0.2,0.6,0.2c0.3,0,0.5-0.1,0.6-0.2
			c0.1-0.1,0.2-0.2,0.2-0.4c0-0.1-0.1-0.2-0.2-0.3c-0.1-0.1-0.3-0.1-0.6-0.2c-0.4-0.1-0.7-0.2-0.9-0.3c-0.2-0.1-0.3-0.2-0.4-0.3
			c-0.1-0.1-0.1-0.3-0.1-0.5c0-0.2,0-0.3,0.1-0.4c0.1-0.1,0.2-0.2,0.3-0.3c0.1-0.1,0.2-0.1,0.4-0.2s0.3-0.1,0.5-0.1
			c0.3,0,0.5,0,0.7,0.1c0.2,0.1,0.4,0.2,0.5,0.3c0.1,0.1,0.2,0.3,0.2,0.5l-0.6,0.1c0-0.2-0.1-0.3-0.2-0.4c-0.1-0.1-0.3-0.1-0.5-0.1
			c-0.3,0-0.5,0-0.6,0.1c-0.1,0.1-0.2,0.2-0.2,0.3c0,0.1,0,0.1,0.1,0.2c0,0.1,0.1,0.1,0.2,0.2c0.1,0,0.2,0.1,0.5,0.1
			c0.4,0.1,0.7,0.2,0.9,0.3s0.3,0.2,0.4,0.3c0.1,0.1,0.1,0.3,0.1,0.5c0,0.2-0.1,0.4-0.2,0.5c-0.1,0.2-0.3,0.3-0.5,0.4
			c-0.2,0.1-0.5,0.1-0.7,0.1c-0.4,0-0.8-0.1-1-0.3C146.7,97.5,146.6,97.3,146.5,96.9z"/>
	</g>
	<g>
		<defs>
			<rect id="SVGID_00000015346152485047990320000014000157399259048596_" x="65" y="23.6" width="120.1" height="80.5"/>
		</defs>
		<clipPath id="SVGID_00000018918292112162036020000016793735820218189227_">
			<use xlink:href="#SVGID_00000015346152485047990320000014000157399259048596_"  style="overflow:visible;"/>
		</clipPath>
		<path style="clip-path:url(#SVGID_00000018918292112162036020000016793735820218189227_);fill:#EA1E26;" d="M60.4,100.6
			c0,0,12.8-17.1,64-19.1c21.5-0.9,65.1,3.6,65.1,3.6s-42.7,0.9-74.2,3.1C81.8,90.5,60.4,100.6,60.4,100.6"/>
		<path style="clip-path:url(#SVGID_00000018918292112162036020000016793735820218189227_);fill:#0F91D0;" d="M122.4,38h-9.1l0,7.8
			h-4l0,5.6l4.1,0l0,24.6c0,0-0.9,8.2,6.1,8.2l8.5,0l0-6.7c0,0-1.2,0-2.5,0c-1.5,0-3.1-0.2-3.1-1.7c0-1.8,0-24.4,0-24.4l5.1,0v-5.6
			l-5,0L122.4,38z"/>
		<path style="clip-path:url(#SVGID_00000018918292112162036020000016793735820218189227_);fill:#0F91D0;" d="M137.7,78.6
			c-1.7,0-1.5-1.7-1.5-1.7l0-24.1c0,0,0-1.5,1.7-1.5c1.6,0,1.5,1.5,1.5,1.5l0,24.2C139.4,77,139.4,78.6,137.7,78.6 M148.4,78.6V36.7
			l-9,0l0,10c0,0-1.2-1.4-4.9-1.6c-0.6,0-1.2,0-1.8,0.1c0,0-5.4,0.7-5.4,3.8c-0.1,2.4,0,18.6,0,26c0,1.9,0,3.2,0,3.6
			c0,0,0.6,5.9,7.9,5.9c4,0,5.6-1.8,5.6-1.8l1,1.4l6.6,0h0.3C148.6,84.1,148.4,80.1,148.4,78.6"/>
		<path style="clip-path:url(#SVGID_00000018918292112162036020000016793735820218189227_);fill:#0F91D0;" d="M96.8,52.8
			c0,0,0.3-1.5,1.8-1.4c1.5,0.1,1.6,1.4,1.6,1.4v9.4l-3.4,0L96.8,52.8z M109.3,77.4l0-8.6l-9,0l0,8.2c0,1.2-0.9,1.6-1.2,1.6
			c-0.3,0-0.4,0.1-1,0c-1.2,0-1.2-1.6-1.2-1.6v-9.5h12.4c0-10.5-0.1-10.4,0-16.2c0.1-5.1-6.9-5.7-8.5-5.7c0.9,0,2.9,0-4-0.1
			c-8.3-0.2-8.8,5.8-8.8,5.8v26.1c0,7.1,8.9,6.7,8.9,6.7h3.5C109.4,84.1,109.3,77.4,109.3,77.4"/>
		<path style="clip-path:url(#SVGID_00000018918292112162036020000016793735820218189227_);fill:#F4C43C;" d="M96.8,61.4l1-0.1
			l0-8.7c0,0,0-0.5-0.4-0.5c-0.1,0-0.3,0-0.3,0c-0.1,0-0.3,0.6-0.3,0.7C96.8,53,96.8,61.4,96.8,61.4"/>
	</g>
	<g>
		<path class="st4" d="M99.7,104.8l0.6,0.1c-0.1,0.4-0.3,0.6-0.5,0.8c-0.3,0.2-0.6,0.3-1,0.3c-0.5,0-0.9-0.2-1.2-0.5
			c-0.3-0.3-0.4-0.7-0.4-1.3c0-0.6,0.1-1,0.4-1.3c0.3-0.3,0.7-0.5,1.2-0.5c0.5,0,0.8,0.2,1.1,0.5c0.3,0.3,0.4,0.8,0.4,1.3
			c0,0,0,0.1,0,0.2h-2.6c0,0.4,0.1,0.7,0.3,0.9c0.2,0.2,0.4,0.3,0.7,0.3c0.2,0,0.4-0.1,0.5-0.2C99.5,105.2,99.7,105,99.7,104.8z
			 M97.8,103.8h1.9c0-0.3-0.1-0.5-0.2-0.6c-0.2-0.2-0.4-0.3-0.7-0.3c-0.3,0-0.5,0.1-0.7,0.3C97.9,103.3,97.8,103.5,97.8,103.8z"/>
		<path class="st4" d="M102.3,105.4l0.1,0.5c-0.2,0-0.3,0.1-0.4,0.1c-0.2,0-0.4,0-0.5-0.1c-0.1-0.1-0.2-0.2-0.2-0.3
			c0-0.1-0.1-0.3-0.1-0.7v-2h-0.4v-0.5h0.4v-0.9l0.6-0.3v1.2h0.6v0.5h-0.6v2c0,0.2,0,0.3,0,0.3c0,0,0.1,0.1,0.1,0.1c0,0,0.1,0,0.2,0
			C102.2,105.4,102.2,105.4,102.3,105.4z"/>
		<path class="st4" d="M107,105.9v-0.4c-0.2,0.3-0.5,0.5-1,0.5c-0.3,0-0.5-0.1-0.8-0.2c-0.2-0.2-0.4-0.4-0.5-0.6
			c-0.1-0.3-0.2-0.6-0.2-0.9c0-0.3,0.1-0.7,0.2-0.9c0.1-0.3,0.3-0.5,0.5-0.6c0.2-0.1,0.5-0.2,0.8-0.2c0.2,0,0.4,0,0.6,0.1
			c0.2,0.1,0.3,0.2,0.4,0.3v-1.7h0.6v4.7H107z M105.1,104.2c0,0.4,0.1,0.8,0.3,1c0.2,0.2,0.4,0.3,0.7,0.3c0.3,0,0.5-0.1,0.6-0.3
			c0.2-0.2,0.3-0.5,0.3-1c0-0.5-0.1-0.8-0.3-1c-0.2-0.2-0.4-0.3-0.7-0.3c-0.3,0-0.5,0.1-0.6,0.3
			C105.2,103.4,105.1,103.7,105.1,104.2z"/>
		<path class="st4" d="M110.8,104.8l0.6,0.1c-0.1,0.4-0.3,0.6-0.5,0.8c-0.3,0.2-0.6,0.3-1,0.3c-0.5,0-0.9-0.2-1.2-0.5
			c-0.3-0.3-0.4-0.7-0.4-1.3c0-0.6,0.1-1,0.4-1.3c0.3-0.3,0.7-0.5,1.2-0.5c0.5,0,0.8,0.2,1.1,0.5c0.3,0.3,0.4,0.8,0.4,1.3
			c0,0,0,0.1,0,0.2h-2.6c0,0.4,0.1,0.7,0.3,0.9c0.2,0.2,0.4,0.3,0.7,0.3c0.2,0,0.4-0.1,0.5-0.2C110.6,105.2,110.7,105,110.8,104.8z
			 M108.9,103.8h1.9c0-0.3-0.1-0.5-0.2-0.6c-0.2-0.2-0.4-0.3-0.7-0.3c-0.3,0-0.5,0.1-0.7,0.3C109,103.3,108.9,103.5,108.9,103.8z
			 M109.5,102l0.4-0.9h0.8L110,102H109.5z"/>
		<path class="st4" d="M113.1,105.9l-1.3-3.4h0.6l0.7,2.1c0.1,0.2,0.2,0.5,0.2,0.7c0.1-0.2,0.1-0.4,0.2-0.7l0.8-2.1h0.6l-1.3,3.4
			H113.1z"/>
		<path class="st4" d="M117.8,104.8l0.6,0.1c-0.1,0.4-0.3,0.6-0.5,0.8c-0.3,0.2-0.6,0.3-1,0.3c-0.5,0-0.9-0.2-1.2-0.5
			c-0.3-0.3-0.4-0.7-0.4-1.3c0-0.6,0.1-1,0.4-1.3c0.3-0.3,0.7-0.5,1.2-0.5c0.5,0,0.8,0.2,1.1,0.5c0.3,0.3,0.4,0.8,0.4,1.3
			c0,0,0,0.1,0,0.2h-2.6c0,0.4,0.1,0.7,0.3,0.9c0.2,0.2,0.4,0.3,0.7,0.3c0.2,0,0.4-0.1,0.5-0.2C117.6,105.2,117.7,105,117.8,104.8z
			 M115.9,103.8h1.9c0-0.3-0.1-0.5-0.2-0.6c-0.2-0.2-0.4-0.3-0.7-0.3c-0.3,0-0.5,0.1-0.7,0.3C116,103.3,115.9,103.5,115.9,103.8z"/>
		<path class="st4" d="M119.1,105.9v-4.7h0.6v4.7H119.1z"/>
		<path class="st4" d="M120.4,104.2c0-0.6,0.2-1.1,0.5-1.4c0.3-0.3,0.7-0.4,1.1-0.4c0.5,0,0.9,0.2,1.2,0.5c0.3,0.3,0.4,0.7,0.4,1.3
			c0,0.4-0.1,0.8-0.2,1c-0.1,0.3-0.3,0.5-0.6,0.6c-0.3,0.1-0.5,0.2-0.8,0.2c-0.5,0-0.9-0.2-1.2-0.5
			C120.5,105.2,120.4,104.7,120.4,104.2z M121,104.2c0,0.4,0.1,0.8,0.3,1c0.2,0.2,0.4,0.3,0.7,0.3c0.3,0,0.5-0.1,0.7-0.3
			c0.2-0.2,0.3-0.6,0.3-1c0-0.4-0.1-0.7-0.3-1c-0.2-0.2-0.4-0.3-0.7-0.3c-0.3,0-0.5,0.1-0.7,0.3C121.1,103.4,121,103.7,121,104.2z"
			/>
		<path class="st4" d="M124.3,107.2v-4.8h0.5v0.4c0.1-0.2,0.3-0.3,0.4-0.4c0.2-0.1,0.3-0.1,0.6-0.1c0.3,0,0.6,0.1,0.8,0.2
			c0.2,0.2,0.4,0.4,0.5,0.6c0.1,0.3,0.2,0.6,0.2,0.9c0,0.4-0.1,0.7-0.2,1c-0.1,0.3-0.3,0.5-0.5,0.6c-0.2,0.1-0.5,0.2-0.8,0.2
			c-0.2,0-0.4,0-0.5-0.1c-0.2-0.1-0.3-0.2-0.4-0.3v1.7H124.3z M124.8,104.2c0,0.4,0.1,0.8,0.3,1c0.2,0.2,0.4,0.3,0.7,0.3
			c0.3,0,0.5-0.1,0.7-0.3c0.2-0.2,0.3-0.6,0.3-1c0-0.4-0.1-0.8-0.3-1c-0.2-0.2-0.4-0.3-0.6-0.3c-0.2,0-0.5,0.1-0.7,0.3
			C124.9,103.4,124.8,103.7,124.8,104.2z"/>
		<path class="st4" d="M128,107.2v-4.8h0.5v0.4c0.1-0.2,0.3-0.3,0.4-0.4c0.2-0.1,0.3-0.1,0.6-0.1c0.3,0,0.6,0.1,0.8,0.2
			c0.2,0.2,0.4,0.4,0.5,0.6c0.1,0.3,0.2,0.6,0.2,0.9c0,0.4-0.1,0.7-0.2,1c-0.1,0.3-0.3,0.5-0.5,0.6c-0.2,0.1-0.5,0.2-0.8,0.2
			c-0.2,0-0.4,0-0.5-0.1c-0.2-0.1-0.3-0.2-0.4-0.3v1.7H128z M128.5,104.2c0,0.4,0.1,0.8,0.3,1c0.2,0.2,0.4,0.3,0.7,0.3
			c0.3,0,0.5-0.1,0.7-0.3c0.2-0.2,0.3-0.6,0.3-1c0-0.4-0.1-0.8-0.3-1c-0.2-0.2-0.4-0.3-0.6-0.3c-0.2,0-0.5,0.1-0.7,0.3
			C128.6,103.4,128.5,103.7,128.5,104.2z"/>
		<path class="st4" d="M134,104.8l0.6,0.1c-0.1,0.4-0.3,0.6-0.5,0.8c-0.3,0.2-0.6,0.3-1,0.3c-0.5,0-0.9-0.2-1.2-0.5
			c-0.3-0.3-0.4-0.7-0.4-1.3c0-0.6,0.1-1,0.4-1.3c0.3-0.3,0.7-0.5,1.2-0.5c0.5,0,0.8,0.2,1.1,0.5c0.3,0.3,0.4,0.8,0.4,1.3
			c0,0,0,0.1,0,0.2h-2.6c0,0.4,0.1,0.7,0.3,0.9c0.2,0.2,0.4,0.3,0.7,0.3c0.2,0,0.4-0.1,0.5-0.2C133.8,105.2,133.9,105,134,104.8z
			 M132.1,103.8h1.9c0-0.3-0.1-0.5-0.2-0.6c-0.2-0.2-0.4-0.3-0.7-0.3c-0.3,0-0.5,0.1-0.7,0.3C132.2,103.3,132.1,103.5,132.1,103.8z"
			/>
		<path class="st4" d="M135.3,105.9v-3.4h0.5v0.5c0.1-0.2,0.3-0.3,0.4-0.4c0.2-0.1,0.4-0.2,0.6-0.2c0.3,0,0.5,0.1,0.6,0.2
			c0.2,0.1,0.3,0.3,0.3,0.4c0.3-0.4,0.6-0.6,1.1-0.6c0.3,0,0.6,0.1,0.8,0.3c0.2,0.2,0.3,0.5,0.3,0.9v2.4h-0.6v-2.2
			c0-0.2,0-0.4-0.1-0.5c0-0.1-0.1-0.2-0.2-0.2c-0.1-0.1-0.2-0.1-0.3-0.1c-0.2,0-0.4,0.1-0.6,0.2s-0.2,0.4-0.2,0.8v2h-0.6v-2.2
			c0-0.3,0-0.5-0.1-0.6c-0.1-0.1-0.3-0.2-0.5-0.2c-0.2,0-0.3,0-0.5,0.1c-0.1,0.1-0.2,0.2-0.3,0.4c-0.1,0.2-0.1,0.4-0.1,0.7v1.8
			H135.3z"/>
		<path class="st4" d="M143.2,104.8l0.6,0.1c-0.1,0.4-0.3,0.6-0.5,0.8c-0.3,0.2-0.6,0.3-1,0.3c-0.5,0-0.9-0.2-1.2-0.5
			c-0.3-0.3-0.4-0.7-0.4-1.3c0-0.6,0.1-1,0.4-1.3c0.3-0.3,0.7-0.5,1.2-0.5c0.5,0,0.8,0.2,1.1,0.5c0.3,0.3,0.4,0.8,0.4,1.3
			c0,0,0,0.1,0,0.2h-2.6c0,0.4,0.1,0.7,0.3,0.9c0.2,0.2,0.4,0.3,0.7,0.3c0.2,0,0.4-0.1,0.5-0.2C143,105.2,143.1,105,143.2,104.8z
			 M141.3,103.8h1.9c0-0.3-0.1-0.5-0.2-0.6c-0.2-0.2-0.4-0.3-0.7-0.3c-0.3,0-0.5,0.1-0.7,0.3C141.4,103.3,141.3,103.5,141.3,103.8z"
			/>
		<path class="st4" d="M144.5,105.9v-3.4h0.5v0.5c0.3-0.4,0.6-0.6,1.1-0.6c0.2,0,0.4,0,0.6,0.1c0.2,0.1,0.3,0.2,0.4,0.3
			c0.1,0.1,0.1,0.3,0.2,0.4c0,0.1,0,0.3,0,0.6v2.1h-0.6v-2.1c0-0.2,0-0.4-0.1-0.5c0-0.1-0.1-0.2-0.2-0.3c-0.1-0.1-0.3-0.1-0.4-0.1
			c-0.2,0-0.5,0.1-0.6,0.2c-0.2,0.2-0.3,0.5-0.3,0.9v1.9H144.5z"/>
		<path class="st4" d="M149.5,105.4l0.1,0.5c-0.2,0-0.3,0.1-0.4,0.1c-0.2,0-0.4,0-0.5-0.1c-0.1-0.1-0.2-0.2-0.2-0.3
			c0-0.1-0.1-0.3-0.1-0.7v-2h-0.4v-0.5h0.4v-0.9l0.6-0.3v1.2h0.6v0.5h-0.6v2c0,0.2,0,0.3,0,0.3c0,0,0.1,0.1,0.1,0.1c0,0,0.1,0,0.2,0
			C149.3,105.4,149.4,105.4,149.5,105.4z"/>
	</g>
</g>
</svg>
