<?xml version="1.0" encoding="utf-8"?>
<!-- Generator: Adobe Illustrator 26.5.0, SVG Export Plug-In . SVG Version: 6.00 Build 0)  -->
<svg version="1.1" id="Layer_1" xmlns="http://www.w3.org/2000/svg" xmlns:xlink="http://www.w3.org/1999/xlink" x="0px" y="0px"
	 viewBox="0 0 250 128" style="enable-background:new 0 0 250 128;" xml:space="preserve">
<style type="text/css">
	.st0{fill:none;}
	.st1{fill:url(#SVGID_1_);}
	.st2{fill:url(#SVGID_00000079483954881994067400000003183688483675369395_);}
	.st3{fill:url(#SVGID_00000096758273345464441770000015205505663109106342_);}
	.st4{fill:url(#SVGID_00000123405013277831928320000007700649923430453891_);}
	.st5{fill:#211E1F;}
	.st6{fill:#512D80;}
</style>
<g>
	<rect x="-6.9" y="20.7" class="st0" width="263.8" height="86.6"/>
	<g>
		<g>
			<g>
				
					<linearGradient id="SVGID_1_" gradientUnits="userSpaceOnUse" x1="59.5421" y1="473.2751" x2="22.2499" y2="475.8828" gradientTransform="matrix(1 0 0 1 0 -416.0199)">
					<stop  offset="0" style="stop-color:#502D80"/>
					<stop  offset="0.1185" style="stop-color:#502D80"/>
					<stop  offset="0.1209" style="stop-color:#502D80"/>
					<stop  offset="0.3094" style="stop-color:#674896"/>
					<stop  offset="0.5492" style="stop-color:#836CA8"/>
					<stop  offset="0.7459" style="stop-color:#927FB3"/>
					<stop  offset="0.8736" style="stop-color:#9885B5"/>
					<stop  offset="1" style="stop-color:#8A76AD"/>
				</linearGradient>
				<path class="st1" d="M48.7,54.6c4.1,1.3,7.3,4.3,9.5,8.7c0.3,0.6,0.5,1.4,0.3,2c0.1-0.2,0.2-0.4,0.2-0.6
					C64,48.1,45.3,37,35.9,42c-0.2,0.1-0.4,0.2-0.6,0.3C23.2,49.5,19.1,65.1,26,77.4C21,67.9,32.1,49.3,48.7,54.6z"/>
				
					<linearGradient id="SVGID_00000132792522330937895570000003820153213724558208_" gradientUnits="userSpaceOnUse" x1="-160.8119" y1="355.6963" x2="-198.1208" y2="358.3051" gradientTransform="matrix(0 -1 1 0 -314.4149 -107.0728)">
					<stop  offset="0" style="stop-color:#502D80"/>
					<stop  offset="0.1185" style="stop-color:#502D80"/>
					<stop  offset="0.1209" style="stop-color:#502D80"/>
					<stop  offset="0.3094" style="stop-color:#674896"/>
					<stop  offset="0.5492" style="stop-color:#836CA8"/>
					<stop  offset="0.7459" style="stop-color:#927FB3"/>
					<stop  offset="0.8736" style="stop-color:#9885B5"/>
					<stop  offset="1" style="stop-color:#8A76AD"/>
				</linearGradient>
				<path style="fill:url(#SVGID_00000132792522330937895570000003820153213724558208_);" d="M38.6,64.6c1.3-4.1,4.3-7.3,8.7-9.5
					c0.6-0.3,1.4-0.5,2-0.3c-0.2-0.1-0.4-0.2-0.6-0.2C32.1,49.3,21,67.9,26,77.4c0.1,0.2,0.2,0.4,0.3,0.6
					c7.2,12.2,22.8,16.3,35.1,9.3C52,92.2,33.4,81.1,38.6,64.6z"/>
				
					<linearGradient id="SVGID_00000127754154071938234320000003609431602291152014_" gradientUnits="userSpaceOnUse" x1="-43.2575" y1="135.3436" x2="-80.5665" y2="137.9525" gradientTransform="matrix(-1 0 0 -1 -5.4673 207.3416)">
					<stop  offset="0" style="stop-color:#502D80"/>
					<stop  offset="0.1185" style="stop-color:#502D80"/>
					<stop  offset="0.1209" style="stop-color:#502D80"/>
					<stop  offset="0.3094" style="stop-color:#674896"/>
					<stop  offset="0.5492" style="stop-color:#836CA8"/>
					<stop  offset="0.7459" style="stop-color:#927FB3"/>
					<stop  offset="0.8736" style="stop-color:#9885B5"/>
					<stop  offset="1" style="stop-color:#8A76AD"/>
				</linearGradient>
				<path style="fill:url(#SVGID_00000127754154071938234320000003609431602291152014_);" d="M48.7,74.6c-4.1-1.3-7.3-4.3-9.5-8.7
					c-0.3-0.6-0.5-1.4-0.3-2c-0.1,0.2-0.2,0.4-0.2,0.6C33.4,81.1,52,92.2,61.5,87.3c0.2-0.1,0.4-0.2,0.6-0.3
					c12.2-7.2,16.3-22.8,9.3-35.1C76.3,61.3,65.2,79.9,48.7,74.6z"/>
				
					<linearGradient id="SVGID_00000140708753371948510140000014196433578472032646_" gradientUnits="userSpaceOnUse" x1="177.0964" y1="252.9229" x2="139.7853" y2="255.532" gradientTransform="matrix(0 1 -1 0 308.9471 -101.6055)">
					<stop  offset="0" style="stop-color:#502D80"/>
					<stop  offset="0.1185" style="stop-color:#502D80"/>
					<stop  offset="0.1209" style="stop-color:#502D80"/>
					<stop  offset="0.3094" style="stop-color:#674896"/>
					<stop  offset="0.5492" style="stop-color:#836CA8"/>
					<stop  offset="0.7459" style="stop-color:#927FB3"/>
					<stop  offset="0.8736" style="stop-color:#9885B5"/>
					<stop  offset="1" style="stop-color:#8A76AD"/>
				</linearGradient>
				<path style="fill:url(#SVGID_00000140708753371948510140000014196433578472032646_);" d="M58.7,64.6c-1.3,4.1-4.3,7.3-8.7,9.5
					c-0.6,0.3-1.4,0.5-2,0.3c0.2,0.1,0.4,0.2,0.6,0.2c16.5,5.3,27.6-13.4,22.6-22.8c-0.1-0.2-0.2-0.4-0.3-0.6
					C63.7,39.1,48.1,35,35.9,41.9C45.3,37,64,48.1,58.7,64.6z"/>
			</g>
		</g>
		<g>
			<g>
				<path class="st5" d="M114.3,71.9c-1.7,0-2.3-0.7-2.3-1.9c0-1.4,0.8-2.1,2.8-2.1h2.6v0.8C117.4,70.8,116.1,71.9,114.3,71.9z
					 M109.7,70.2c0,1.6,0.9,3.4,3.9,3.4c1.7,0,2.9-0.7,3.7-1.7l0.3,1.5h1.9v-7.8c0-3.4-2-3.9-4.4-3.9c-1.8,0-4.2,0.5-4.7,3.2h2.3
					c0.3-1,1-1.6,2.4-1.6c1.2,0,2.3,0.4,2.3,2.3v0.8h-2.5C111.8,66.3,109.7,67.4,109.7,70.2L109.7,70.2z M103.6,73.3h2.1v-7.2
					c0-1.7,1-2.4,2.3-2.4c0.4,0,0.9,0,1.4,0.1v-2.1c-0.4-0.1-0.8-0.2-1.1-0.2c-1.2,0-2.1,0.7-2.6,1.7l-0.3-1.4h-1.9V73.3L103.6,73.3
					z M179.6,73.3h2.1v-7.2c0-1.7,1-2.4,2.3-2.4c0.4,0,0.9,0,1.4,0.1v-2.1c-0.4-0.1-0.8-0.2-1.1-0.2c-1.2,0-2.1,0.7-2.6,1.7
					l-0.3-1.4h-1.9V73.3z M139.3,63.7v-1.9H137v-3.3l-2.2,0.3v2.9h-1.7v1.9h1.7V71c0,1.6,0.6,2.6,3,2.6c0.5,0,1.3-0.1,1.8-0.2v-1.6
					c-0.5,0.1-1,0.2-1.3,0.2c-1,0-1.3-0.5-1.3-1.5v-6.7H139.3z M203.9,63.7v-1.9h-2.4v-3.3l-2.2,0.3v2.9h-1.7v1.9h1.7V71
					c0,1.6,0.6,2.6,3,2.6c0.5,0,1.3-0.1,1.8-0.2v-1.6c-0.5,0.1-1,0.2-1.3,0.2c-1,0-1.3-0.5-1.3-1.5v-6.7H203.9z M172,71.8
					c-2.1,0-3.4-1.4-3.4-4.3c0-2.7,1.4-4.3,3.4-4.3c2.1,0,3.3,1.5,3.3,4.4C175.3,70.5,174,71.8,172,71.8L172,71.8z M210.3,71.8
					c-2.1,0-3.4-1.4-3.4-4.3c0-2.7,1.4-4.3,3.4-4.3c2.1,0,3.3,1.5,3.3,4.4C213.6,70.5,212.3,71.8,210.3,71.8L210.3,71.8z
					 M186.9,73.3h2.1v-6.6c0-1.9,0.8-3.2,2.8-3.2c1.9,0,2.4,0.8,2.4,2.7v7.1h2.1v-7.7c0-2.6-1.1-4-3.6-4c-1.7,0-3,0.6-3.8,1.7
					l-0.3-1.5h-1.8L186.9,73.3L186.9,73.3z M122.2,73.3h2.1v-6.6c0-1.9,0.8-3.2,2.8-3.2c1.9,0,2.4,0.8,2.4,2.7v7.1h2.1v-7.7
					c0-2.6-1.1-4-3.6-4c-1.7,0-3,0.6-3.8,1.7l-0.3-1.5h-1.8V73.3L122.2,73.3z M217.9,73.3h2.1v-6.6c0-1.9,0.8-3.2,2.8-3.2
					c1.9,0,2.4,0.8,2.4,2.7v7.1h2.1v-7.7c0-2.6-1.1-4-3.6-4c-1.7,0-3,0.6-3.8,1.7l-0.3-1.5h-1.8V73.3z M153.9,57.9V56h-12.2v1.9h5
					v15.4h2.3V57.9H153.9z M155.1,73.3h2.1v-6.6c0-1.9,0.8-3.2,2.8-3.2c1.9,0,2.4,0.8,2.4,2.7v7.1h2.1v-7.7c0-2.6-1.1-4-3.6-4
					c-1.7,0-3,0.6-3.8,1.7V56h-2.1V73.3z M95,66.5h4.1v3.8c-1.3,1.1-3.2,1.5-4.7,1.5c-3.8,0-6-2.5-6-6.8c0-4.6,2.3-7.2,6-7.2
					c2.2,0,3.8,0.8,5.3,2.2l1.4-1.5c-1.4-1.5-3.7-2.6-6.4-2.6c-5.4,0-8.6,3.8-8.6,9.1c0,5.2,2.7,8.8,8.5,8.8c3.2,0,5.7-1.4,6.9-2.7
					v-6.3H95L95,66.5L95,66.5z M172.2,61.6c-3.8,0-5.8,2.6-5.8,6.1c0,3.6,2,5.9,5.5,5.9c3.5,0,5.7-2.3,5.7-6
					C177.6,63.8,175.6,61.6,172.2,61.6L172.2,61.6z M210.5,61.6c-3.8,0-5.8,2.6-5.8,6.1c0,3.6,2,5.9,5.5,5.9c3.5,0,5.7-2.3,5.7-6
					C215.9,63.8,213.9,61.6,210.5,61.6L210.5,61.6z"/>
			</g>
		</g>
		<g>
			<path class="st6" d="M197,80.7h-2.9v-1.3h7.2v1.3h-2.9v9.8H197V80.7z"/>
			<path class="st6" d="M200.8,86.9c0-2,1.5-3.8,3.8-3.8c2.3,0,3.8,1.7,3.8,3.8c0,2-1.5,3.8-3.8,3.8
				C202.3,90.6,200.8,88.9,200.8,86.9z M207,86.9c0-1.4-0.9-2.5-2.4-2.5c-1.5,0-2.4,1.2-2.4,2.5c0,1.4,0.9,2.5,2.4,2.5
				C206.1,89.4,207,88.2,207,86.9z"/>
			<path class="st6" d="M217.3,90.9c0,2.6-1.4,3.6-3.8,3.6c-2.5,0-3.5-1.5-3.6-3.1h1.4c0.1,1,0.7,1.9,2.2,1.9c1.5,0,2.5-0.7,2.5-2.4
				v-1.7c-0.5,0.9-1.5,1.4-2.5,1.4c-2.2,0-3.7-1.7-3.7-3.8c0-2,1.5-3.8,3.7-3.8c1,0,2.1,0.6,2.5,1.4v-1.2h1.4V90.9z M211,86.9
				c0,1.4,0.9,2.5,2.4,2.5c1.5,0,2.4-1.2,2.4-2.5c0-1.4-0.9-2.5-2.4-2.5C212,84.3,211,85.5,211,86.9z"/>
			<path class="st6" d="M219.1,86.9c0-2,1.5-3.8,3.8-3.8c2.3,0,3.8,1.7,3.8,3.8c0,2-1.5,3.8-3.8,3.8
				C220.6,90.6,219.1,88.9,219.1,86.9z M225.3,86.9c0-1.4-0.9-2.5-2.4-2.5c-1.5,0-2.4,1.2-2.4,2.5c0,1.4,0.9,2.5,2.4,2.5
				C224.4,89.4,225.3,88.2,225.3,86.9z"/>
		</g>
		<g>
			<path class="st6" d="M87.5,40.3v4.2h5.1v1.4h-5.1v4.9H86V38.9h6.7v1.4H87.5z"/>
			<path class="st6" d="M95.9,38.9c0.7,0,1.2,0.5,1.2,1.2c0,0.6-0.5,1.2-1.2,1.2c-0.6,0-1.2-0.5-1.2-1.2
				C94.7,39.5,95.2,38.9,95.9,38.9z M95.1,43.1h1.5v7.7h-1.5V43.1z"/>
			<path class="st6" d="M104.7,45.9c-0.1-1-0.7-1.7-2.1-1.7c-1.6,0-2.4,1.3-2.4,2.7c0,1.5,0.8,2.7,2.5,2.7c1.3,0,1.8-0.6,2.1-1.5
				h1.5c-0.2,1.6-1.4,2.8-3.6,2.8c-2.5,0-3.9-2-3.9-4c0-2.1,1.3-4.1,3.8-4.1c2.5,0,3.5,1.5,3.6,3H104.7z"/>
			<path class="st6" d="M115.7,43.1v7.7h-1.5v-1.3c-0.5,0.9-1.6,1.5-2.7,1.5c-2.4,0-4-1.9-4-4c0-2.2,1.6-4.1,4-4.1
				c1.1,0,2.2,0.6,2.7,1.5v-1.3H115.7z M114.3,46.9c0-1.5-1-2.7-2.6-2.7c-1.6,0-2.6,1.3-2.6,2.7c0,1.5,1,2.7,2.6,2.7
				C113.2,49.6,114.3,48.4,114.3,46.9z"/>
			<path class="st6" d="M117.7,46.9c0-2.2,1.6-4.1,4-4.1c2.5,0,4.1,1.9,4.1,4.1c0,2.2-1.6,4-4.1,4C119.3,50.9,117.7,49.1,117.7,46.9
				z M124.4,46.9c0-1.5-1-2.7-2.6-2.7c-1.6,0-2.6,1.3-2.6,2.7c0,1.5,1,2.7,2.6,2.7C123.4,49.6,124.4,48.4,124.4,46.9z"/>
		</g>
	</g>
</g>
</svg>
