<?xml version="1.0" encoding="utf-8"?>
<!-- Generator: Adobe Illustrator 26.5.0, SVG Export Plug-In . SVG Version: 6.00 Build 0)  -->
<svg version="1.1" id="Layer_1" xmlns="http://www.w3.org/2000/svg" xmlns:xlink="http://www.w3.org/1999/xlink" x="0px" y="0px"
	 viewBox="0 0 250 128" style="enable-background:new 0 0 250 128;" xml:space="preserve">
<style type="text/css">
	.st0{fill:#3566A6;}
	.st1{fill:#A0D3F0;}
	.st2{fill:#EA7F20;}
	.st3{fill:#161418;}
	.st4{fill:#FFFFFF;}
</style>
<g>
	<g>
		<path class="st0" d="M112.2,56.9c-0.1,0.2-0.2,0.3-0.3,0.5c0,0,0,0,0.1,0.1c0.2-0.2,0.3-0.3,0.5-0.5c0.1-0.1,0.2-0.1,0.3,0
			c0.3,0.4,0.6,0.7,0.8,1.1c0.1,0.1,0.1,0.1,0.2,0c0.1-0.2,0.2-0.4,0.4-0.5c0.1-0.1,0.1-0.2,0-0.2c-0.2-0.3-0.4-0.6-0.6-0.8
			c-0.2-0.3-0.2-0.3,0-0.6c0.7-0.8,1.3-1.7,2-2.5c0.1-0.1,0.1-0.1,0.2,0c0.7,1,1.5,2,2.3,3c0.1,0.1,0.1,0.1,0.2,0
			c0.1-0.3,0.3-0.5,0.4-0.8c0.1-0.1,0.1-0.2,0-0.3c-0.5-1.3-1.1-2.6-1.6-4c0-0.1,0-0.2,0-0.3c0.4-0.7,0.8-1.5,1.2-2.2
			c0,0,0.1-0.1,0.1-0.1c0-0.3,0-0.5,0-0.8c-0.2,0.1-0.4,0.2-0.7,0.3c-0.1,0.1-0.2,0.1-0.3,0.3c-0.4,0.6-0.9,1.1-1.3,1.7
			c-0.1,0.1-0.2,0.1-0.3,0.1c-1.5,0-3.1,0-4.6,0.1c-0.1,0-0.1,0-0.2,0.1c-0.2,0.2-0.4,0.4-0.5,0.7c-0.1,0.1,0,0.1,0.1,0.1
			c0.3,0.1,0.7,0.2,1,0.3c1,0.3,1.9,0.5,2.9,0.8c0.1,0,0.2,0.1,0.1,0.2c-0.5,1-1,2.1-1.5,3.1c-0.1,0.1-0.1,0.2-0.3,0.1
			c-0.4-0.1-0.8-0.2-1.2-0.3c-0.1,0-0.2,0-0.2,0.1c-0.1,0.2-0.3,0.4-0.4,0.6c0.1,0,0.1,0,0.1,0c0.4,0.1,0.7,0.2,1.1,0.3
			C112.3,56.6,112.3,56.6,112.2,56.9z"/>
		<path class="st0" d="M122,38.5C107.2,36,102.5,49,102.5,49c2.8,23.6,5.4,38,5.4,38l0.9,3.8l-2.4-42c0,0,0.4-3.8,8.3-7.5
			c5.8-2.7,14.6,2.2,15.7,7.3c0.9,3.9,0.7,8.3-3.9,12c-2.4,1.9-5.9,3.6-8.5,4.1c-8.4,1.4-6.4-6.3-6.4-6.3s-3,8.4,8.2,6.4
			c2.4-0.4,6.4-1.9,9.1-5.3c1.7-2.1,2.9-4.4,3.1-8.2C132.2,47,130,39.8,122,38.5z"/>
		<path class="st0" d="M118.3,67.3L115,81.4h1.9l0.9-3.9h2.4l0.9,3.9h1.9l-3.3-14.1H118.3z M118.2,75.7l0.8-3.5l0.8,3.5H118.2z"/>
		<path class="st0" d="M128.7,67.7c-0.4-0.2-0.9-0.4-1.6-0.4c-0.7,0-1.2,0.1-1.6,0.4c-0.4,0.2-0.7,0.5-0.9,0.7
			c-0.5,0.7-0.8,1.7-0.8,2.9v6c0,1.2,0.3,2.2,0.8,2.9c0.1,0.1,0.2,0.3,0.4,0.4c0.1,0.1,0.3,0.3,0.5,0.4c0.2,0.1,0.4,0.2,0.7,0.3
			c0.3,0.1,0.6,0.1,0.9,0.1c0.7,0,1.2-0.1,1.6-0.4c0.4-0.2,0.7-0.5,0.9-0.8c0.5-0.7,0.8-1.7,0.8-2.9v-0.9h-1.8v0.9
			c0,0.8-0.1,1.4-0.4,1.8c-0.1,0.1-0.2,0.2-0.4,0.3c-0.2,0.1-0.4,0.2-0.8,0.2c-0.3,0-0.6-0.1-0.8-0.2c-0.2-0.1-0.3-0.2-0.3-0.3
			c-0.3-0.4-0.4-1-0.4-1.8v-6c0-0.5,0.1-1,0.2-1.3c0.1-0.3,0.2-0.5,0.4-0.7c0.2-0.1,0.3-0.2,0.5-0.2c0.2,0,0.3,0,0.5,0
			c0.1,0,0.3,0,0.5,0s0.3,0.1,0.5,0.2c0.2,0.1,0.3,0.4,0.4,0.7c0.1,0.3,0.2,0.7,0.2,1.3v0.9h1.8v-0.9c0-1.2-0.3-2.2-0.8-2.9
			C129.4,68.2,129.1,67.9,128.7,67.7z"/>
		<rect x="132.1" y="67.3" class="st0" width="1.8" height="14.1"/>
		<polygon class="st0" points="135.7,81.4 137.5,81.4 137.5,75.2 141.6,75.2 141.6,73.4 137.5,73.4 137.5,69.1 141.6,69.1 
			141.6,67.3 135.7,67.3 		"/>
		<rect x="143.8" y="67.3" class="st0" width="1.8" height="14.1"/>
		<path class="st0" d="M154.1,77.3v-6.1c0-0.9-0.1-1.5-0.3-2.1c-0.2-0.5-0.5-0.9-0.9-1.2c-0.3-0.3-0.7-0.5-1.1-0.6
			c-0.4-0.1-0.7-0.1-1-0.1c-0.3,0-0.7,0-1.1,0.1c-0.4,0.1-0.8,0.3-1.1,0.6c-0.3,0.3-0.6,0.7-0.9,1.2c-0.2,0.5-0.3,1.2-0.3,2.1v6.1
			c0,1.2,0.3,2.2,0.8,2.9c0.1,0.1,0.2,0.3,0.4,0.4c0.1,0.1,0.3,0.3,0.5,0.4c0.2,0.1,0.4,0.2,0.7,0.3c0.3,0.1,0.6,0.1,0.9,0.1
			c0.3,0,0.5,0,0.8-0.1c0.2-0.1,0.4-0.1,0.6-0.2l0.9,1.1h2.3l-1.9-2.3C153.9,79.2,154.1,78.4,154.1,77.3z M152.3,77.3
			c0,0.4,0,0.8-0.1,1.1l-0.4-0.5h-2.3l1.4,1.7h-0.1c-0.3,0-0.6-0.1-0.8-0.2c-0.2-0.1-0.3-0.2-0.4-0.3c-0.3-0.4-0.4-1-0.4-1.8v-6.1
			c0-0.5,0-0.9,0.1-1.2c0.1-0.3,0.2-0.5,0.4-0.6c0.1-0.1,0.3-0.2,0.5-0.3c0.2,0,0.4-0.1,0.6-0.1s0.4,0,0.6,0.1
			c0.2,0,0.3,0.1,0.5,0.3c0.1,0.1,0.3,0.4,0.4,0.6c0.1,0.3,0.1,0.7,0.1,1.2V77.3z"/>
		<path class="st0" d="M160,77.6c0,0.5,0,0.9-0.1,1.1c-0.1,0.3-0.2,0.5-0.4,0.6c-0.1,0.1-0.3,0.2-0.4,0.2c-0.2,0-0.3,0-0.4,0
			c-0.1,0-0.3,0-0.4,0c-0.2,0-0.3-0.1-0.4-0.2c-0.1-0.1-0.3-0.3-0.4-0.6c-0.1-0.3-0.1-0.6-0.1-1.1V67.3h-1.8v10.3
			c0,1.2,0.3,2.1,0.8,2.7c0.2,0.3,0.5,0.5,0.9,0.7c0.4,0.2,0.9,0.3,1.5,0.3c0.6,0,1.1-0.1,1.5-0.3c0.4-0.2,0.7-0.5,0.9-0.7
			c0.5-0.6,0.8-1.5,0.8-2.7V67.3H160V77.6z"/>
		<polygon class="st0" points="163.6,81.4 169.5,81.4 169.5,79.6 165.4,79.6 165.4,75.2 169.5,75.2 169.5,73.4 165.4,73.4 
			165.4,69.1 169.5,69.1 169.5,67.3 163.6,67.3 		"/>
		<polygon class="st0" points="196.7,73.5 194.1,67.5 193.4,67.5 196.4,74.6 196.4,81.4 197.1,81.4 197.1,74.6 200.1,67.5 
			199.3,67.5 		"/>
		<path class="st0" d="M204.5,67.5l-2.1,9v0.1l-1.1,4.8h0.7l0.9-4.2h3.7l0.9,4.2h0.7L205,67.5H204.5z M203.1,76.5l1.7-7.2l1.7,7.2
			H203.1z"/>
		<path class="st0" d="M212.1,67.5c-2,0-3,1.3-3,3.6v6.6c0,2.4,1,3.7,3,3.7c2,0,3-1.3,3-3.7v-2.5h-3.7v0.7h3v1.8c0,2.1-0.8,3-2.3,3
			c-1.6,0-2.3-1-2.3-3v-6.6c0-1.3,0.3-2.1,0.8-2.5c0.5-0.4,1-0.5,1.5-0.5c0.5,0,1.1,0.1,1.5,0.5c0.5,0.4,0.8,1.2,0.8,2.5v0.3h0.7
			v-0.3C215.1,68.8,214.1,67.5,212.1,67.5z"/>
		<polygon class="st0" points="221.6,68.2 221.6,67.5 216.6,67.5 216.6,81.4 221.6,81.4 221.6,80.8 217.3,80.8 217.3,74.8 221,74.8 
			221,74.1 217.3,74.1 217.3,68.2 		"/>
		<path class="st0" d="M164.3,60C164,60.1,164,60.1,164.3,60L164.3,60z"/>
		<path class="st0" d="M184.8,62.7c-1.4,2.8-2.5,5.8-3.2,8.4c-0.5,0.9-0.8,2-0.8,3.1c-0.9,3.5-1.2,6-1.2,6
			c-1-19.6-14.5-20.5-14.5-20.5c-0.3,0.2-0.5,0.3-0.7,0.4c0.4,0,1.5,0,3.5,0.9c4.1,1.9,6.3,4.3,8.7,9.8c2.5,5.6,1,12.9,1,12.9
			l3.1-0.6c-0.2-1.3,0.1-3.3,0.7-5.8c1.1,2.1,3.3,3.5,5.7,3.5c3.6,0,6.5-2.9,6.5-6.5c0-3.6-2.9-6.5-6.5-6.5c-1,0-1.9,0.2-2.7,0.6
			c1.3-3.4,2.8-6.5,3.9-8.4c7.8-13.6,12.9-17.6,12.2-17.1C199.7,43.4,192.1,47.9,184.8,62.7z"/>
	</g>
	<g>
		<path class="st1" d="M86.7,62.5c0,2.7-0.4,5.3-1,7.7c-1.6,5.8-5,10.9-9.5,14.7c-5.1,4.2-11.5,6.7-18.6,6.7
			C46,91.6,36.1,85,31.4,75.3c-0.5-1-0.9-2-1.3-3c-1.1-3.1-1.7-6.4-1.7-9.8c0-16.1,13.1-29.2,29.2-29.2
			C73.7,33.3,86.7,46.4,86.7,62.5z"/>
		<ellipse class="st2" cx="70" cy="73.5" rx="12.1" ry="11.4"/>
		<path class="st0" d="M85.6,70c-1.6,5.8-5,10.9-9.5,14.7c-5.1,4.2-11.5,6.7-18.6,6.7c-11.5,0-21.5-6.7-26.2-16.4
			c-0.5-1-0.9-2-1.3-3c2.6-0.1,3.5-1.8,3.5-1.8s0.8,0.9,2.4,1.2c1.6,0.4,3.8-1,3.8-1s1.8,0.6,3.2,1c1.4,0.4,3.3-1,3.3-1
			s1.4,0.9,2.8,1c1.4,0.1,3.2-1.1,3.2-1.1s1.9,0.3,3.9,0.6c2.1,0.3,3-0.9,3-0.9s1.4,0.4,2.8,0.7c1.5,0.4,3.2-1.1,3.2-1.1
			s1.9,0.8,3.4,1c1.5,0.3,3.1-1.1,3.1-1.1s2,0.7,3.4,0.9c1.4,0.2,3-1.1,3-1.1s1.5,0.6,3.4,0.8c1.9,0.2,2.2-1.4,2.9-0.9
			C84.7,69.5,85.2,69.8,85.6,70z"/>
		<path class="st3" d="M76.1,84.7c-5.1,4.2-11.5,6.7-18.6,6.7c-11.5,0-21.5-6.7-26.2-16.4c2.4,0,8.1,0,12.3,1.2
			c8.3,2.4,14.1,6.5,22.2,7.7C71.7,84.9,74.1,85.2,76.1,84.7z"/>
		<path class="st1" d="M82.1,77.6c-0.2,0.3-0.3,0.5-0.5,0.8c0,0-0.1-0.1-0.2-0.1c-0.5-0.2-1-0.4-1.4-0.7c-0.2-0.1-0.3-0.1-0.4,0
			c-0.5,0.4-1,0.6-1.6,0.7c-1.4,0.3-2.7,0-4-0.6c-0.2-0.1-0.4-0.1-0.5,0c-0.3,0.2-0.6,0.3-0.8,0.5C71,79,69.5,78.7,68,78
			c-0.3-0.1-0.5-0.1-0.7,0c-1.9,1.2-3.9,1.2-5.8,0c-0.2-0.2-0.4-0.1-0.6,0c-1.3,0.9-2.7,1.1-4.2,0.7c-0.2-0.1-0.4-0.2-0.4-0.4
			c-0.1-0.4,0.2-0.6,0.7-0.5c0.7,0.2,1.4,0.2,2.1,0c0.7-0.2,1.3-0.5,1.7-1c0.2-0.2,0.4-0.3,0.7,0c0.2,0.2,0.5,0.3,0.7,0.5
			c1.8,1,3.6,0.7,5.1-0.6c0.2-0.2,0.3-0.2,0.5,0c0.6,0.4,1.3,0.7,2.1,0.9c1.4,0.3,2.5-0.1,3.6-1c0.2-0.1,0.3-0.2,0.5,0
			c0.4,0.2,0.7,0.4,1.2,0.5c1.6,0.4,3.2,0.6,4.5-0.8c0.1-0.1,0.2-0.1,0.3,0c0.6,0.5,1.2,0.8,1.9,1.1C81.9,77.4,82,77.7,82.1,77.6z"
			/>
		<path class="st1" d="M84.3,73.6c-0.1,0.3-0.2,0.6-0.4,0.8c0-0.1,0-0.2-0.2-0.3c-0.5-0.2-1.1-0.4-1.6-0.8c-0.1-0.1-0.2,0-0.3,0.1
			c-0.4,0.3-0.7,0.5-1.2,0.6c-1.5,0.4-3,0.2-4.5-0.4c-0.2-0.1-0.4-0.1-0.5,0.1c-0.7,0.5-1.5,0.8-2.4,0.9c-1.1,0.1-2.2-0.2-3.2-0.8
			c-0.2-0.1-0.3-0.1-0.5,0c-1.9,1.3-3.9,1.3-5.9,0.1c-0.2-0.2-0.4-0.1-0.6,0c-0.7,0.5-1.5,0.8-2.3,0.9c-1.1,0.1-2.1-0.2-3.1-0.7
			c-0.1-0.1-0.3-0.1-0.4,0c-0.5,0.2-1,0.4-1.6,0.5c-1.8,0.5-3.6,0.3-5.2-0.5c-0.3-0.2-0.4-0.4-0.3-0.7c0.1-0.3,0.4-0.3,0.7-0.2
			c2.1,1,4.2,0.9,6.2-0.1c0.3-0.2,0.5-0.2,0.8,0c1.9,1.1,3.6,0.9,5.1-0.4c0.4-0.3,0.4-0.3,0.8,0c1,0.7,2.1,1.2,3.4,1
			c0.9-0.1,1.7-0.6,2.4-1.1c0.2-0.1,0.3-0.1,0.5,0c0.7,0.5,1.5,0.8,2.3,0.9c1.3,0.2,2.3-0.2,3.3-1c0.2-0.1,0.3-0.2,0.5-0.1
			c0.7,0.5,1.5,0.7,2.4,0.8c1.2,0.1,2.4,0,3.3-1.1c0.1-0.2,0.2-0.1,0.4,0c0.5,0.3,0.9,0.7,1.5,0.9C83.8,73.1,84.1,73.2,84.3,73.6z"
			/>
		<g>
			<g>
				<path class="st3" d="M76.6,44.9c0.4,0.1,0.9,0.2,1.2,0.2c0.3,0.2,0.2,0.9,0.5,0.9c0.4-0.1,0.2-0.7,0.5-0.7
					c-0.6,1.7-0.2,3.1,0.3,4.4c0.3-0.3,0.6-0.8,1-1.1c-0.3,0.9-0.4,1.8-1,2.8c0.3,1.2-0.3,2.6,0,3.8c3.5-4.4,3.8-9.1-0.4-12
					c0,0,0.1-0.2,0.4-0.5c0.4-0.3,0.8-0.1,0.7-0.2c0.7,1.2,1.8,1.3,3.2,1.9c0.2-0.3-0.3-1.2,0.1-1.1c0.5,0.4,0.7,1.5,1.3,2
					c0.8,0.7,1.9,1.1,2.5,1.8c0.2-3.5-4.5-7.8-8.1-5.7c2.5-3.4,1.5-6.6-2.5-8.6c0.5,1.6,0.9,3.2,2.1,4.6c-0.4-0.2-0.7-0.4-1-0.5
					c-0.1,1.1-0.1,2.3,0.1,3.3c-0.1,0.5-0.3,0-0.3,0c0.1-4.3-6.7-6.1-8.9-3.9c0.9,0.3,1.9,0.6,2.9,1.2c0.7-0.1,1.9-0.1,2.5,0.2
					c-0.4,0.1-0.8,0.1-1.2,0.6c1.2,0.9,2,2.1,3.4,2c0.1,0.2,0.2,0.6,0.2,0.6c0.1,0.3,0,0.5,0,0.5c-0.5,0.4-1.2,0.3-1.7,0.3
					c-4-0.3-7.7,4.9-7,9.1c0.8-1.1,1.5-2.3,2.4-3.1c0.2-0.8,0.3-1.9,1-2.6c-0.1,0.5-0.2,1,0.1,1.4c1-1.1,2.4-1.4,2.8-3.3
					c0.4,0.3-0.3,0.8,0.1,1.1c0.4-0.3,0.8-0.6,1.3-0.6c0,0,0.2,0.2,0.3,0.6L76.6,44.9z"/>
			</g>
		</g>
		<g>
			<path class="st3" d="M45.6,54c0-0.2,0.1-0.4,0.2-0.6c0.1-0.3,0.1-0.3-0.2-0.4c-0.4-0.1-0.8-0.1-1.2-0.2c0,0-0.1,0-0.1,0
				c0.1-0.2,0.2-0.5,0.3-0.7c0-0.1,0.1-0.1,0.2-0.1c0.4,0.1,0.9,0.1,1.3,0.2c0.2,0,0.2,0,0.3-0.2c0.4-1.1,0.8-2.3,1.2-3.4
				c0.1-0.2,0-0.2-0.1-0.2c-1-0.1-2.1-0.3-3.1-0.4c-0.4,0-0.7-0.1-1.1-0.1c-0.1,0-0.1,0-0.1-0.1c0.2-0.3,0.3-0.5,0.5-0.8
				c0-0.1,0.1-0.1,0.2-0.1c1.6-0.2,3.1-0.5,4.7-0.7c0.1,0,0.2-0.1,0.3-0.2c0.4-0.6,0.7-1.3,1.1-1.9c0.1-0.1,0.2-0.2,0.3-0.3
				c0.2-0.1,0.4-0.2,0.6-0.4c0.1,0.3,0.1,0.5,0.1,0.8c0,0,0,0.1,0,0.1c-0.3,0.8-0.6,1.6-0.9,2.4c0,0.1,0,0.2,0,0.3
				c0.7,1.3,1.4,2.6,2.2,3.8c0.1,0.1,0.1,0.2,0,0.3c-0.1,0.3-0.2,0.6-0.3,0.9c-0.1,0.1-0.1,0.1-0.2,0c-0.9-0.9-1.8-1.9-2.7-2.8
				c-0.1-0.1-0.2-0.1-0.2,0c-0.6,0.9-1.1,1.9-1.7,2.8c-0.2,0.3-0.2,0.3,0.1,0.6c0.2,0.3,0.5,0.5,0.7,0.8c0.1,0.1,0.1,0.1,0,0.2
				c-0.1,0.2-0.2,0.4-0.3,0.6c-0.1,0.1-0.1,0.1-0.2,0c-0.3-0.3-0.7-0.7-1-1c-0.1-0.1-0.2-0.1-0.3,0C46,53.7,45.8,53.9,45.6,54
				C45.6,54,45.6,54,45.6,54z"/>
			<path class="st4" d="M63.4,42.6c-1.9-5.1-11.6-8.8-17.1-5.3c-7.6,4.8-7.5,8.7-7.5,8.7l8,42.7l-1.4-3.8c0,0-4.5-14.5-10.6-38.3
				c0,0,3.1-13.9,18.6-13.4c8.4,0.3,11.6,7.4,12,11.9c0.3,3.9-0.6,6.5-2.1,8.8c-2.3,3.8-6.3,5.9-8.7,6.7c-11.3,3.5-9.3-5.5-9.3-5.5
				s-1.1,8.1,7.4,5.6c2.6-0.8,6-3,8.2-5.3C65.1,51,64.8,46.5,63.4,42.6z"/>
		</g>
		<path class="st3" d="M40.4,61.4c0,0,13.9,1,14.9,21c0,0,1.3-9.5,5.4-17.8C68.2,49.4,76,44.8,76.8,44.4S72.3,48,64.3,61.9
			c-2.9,5.1-8.5,19.2-7.8,23.6l-3.2,0.6c0,0,1.5-7.5-1-13.2c-2.5-5.7-4.7-8.1-9-10C39.1,60.9,38.9,62.6,40.4,61.4z"/>
		<g>
			<g>
				<path class="st3" d="M42.1,69.1c-0.5-0.7-1-1.5-1.3-2.2c-0.4-0.3-1.1-0.6-1.3-1.3c0.3,0.2,0.6,0.3,0.9,0.2
					C39.9,65,40.1,64,39,63.3c0.3-0.2,0.4,0.4,0.7,0.2c-0.1-0.3-0.2-0.7-0.1-1c0,0,0.1,0,0.1,0l0.6-0.2c0.2-0.2,0.5-0.7,0.7-1
					c0.2-0.1,0.6,0.1,0.7-0.1c0-0.3-0.4-0.3-0.3-0.5c0.9,0.8,1.8,0.9,2.8,0.9c-0.1-0.3-0.4-0.6-0.4-0.9c0.5,0.4,1,0.7,1.5,1.3
					c0.8,0.1,1.5,0.8,2.3,0.9c-1.9-3.3-4.7-4.6-7.5-2.7c0,0-0.1-0.1-0.2-0.4c-0.1-0.2,0-0.4,0.1-0.5c0.9-0.1,1.3-0.8,1.9-1.6
					c-0.2-0.2-0.8-0.1-0.7-0.3c0.4-0.2,1-0.1,1.6-0.3c0.6-0.3,1.1-0.9,1.7-1.1c-2.1-1-5.9,0.9-5.4,3.7c-1.5-2.4-3.7-2.5-5.9-0.5
					c1.1,0.1,2.2,0.2,3.4-0.2c-0.2,0.2-0.4,0.3-0.5,0.5c0.7,0.4,1.4,0.6,2.1,0.7c0.3,0.2-0.1,0.2-0.1,0.2c-2.6-1.1-5.3,2.7-4.5,4.6
					c0.4-0.5,0.8-1,1.5-1.5c0.1-0.5,0.4-1.2,0.7-1.5c0,0.3-0.1,0.6,0.1,0.9c0.8-0.5,1.8-0.8,2.1-1.6c0.1,0,0.4,0,0.4,0
					c0.2,0,0.3,0.1,0.3,0.1c0.1,0.4-0.1,0.8-0.2,1.1C37,65,39.4,68.6,42.1,69.1z"/>
			</g>
		</g>
	</g>
</g>
</svg>
