<?xml version="1.0" encoding="utf-8"?>
<!-- Generator: Adobe Illustrator 26.5.0, SVG Export Plug-In . SVG Version: 6.00 Build 0)  -->
<svg version="1.1" id="Layer_1" xmlns="http://www.w3.org/2000/svg" xmlns:xlink="http://www.w3.org/1999/xlink" x="0px" y="0px"
	 viewBox="0 0 250 128" style="enable-background:new 0 0 250 128;" xml:space="preserve">
<style type="text/css">
	.st0{fill:#233D7C;}
	.st1{fill:#FFFFFF;}
	.st2{fill:#CE1F45;}
	.st3{fill:#003E7E;}
</style>
<g>
	<g>
		<g>
			<g>
				<path class="st0" d="M131.5,53.9h6.1c3.6,0,5.8,2.1,5.8,5.2v0c0,3.5-2.7,5.3-6.1,5.3h-2.5V69h-3.3V53.9z M137.5,61.5
					c1.7,0,2.6-1,2.6-2.3v0c0-1.5-1-2.3-2.7-2.3h-2.6v4.6H137.5z"/>
				<path class="st0" d="M143.9,63.3L143.9,63.3c0-3.3,2.3-6,5.7-6c3.8,0,5.6,3,5.6,6.3c0,0.3,0,0.6,0,0.9h-8
					c0.3,1.5,1.4,2.3,2.8,2.3c1.1,0,1.9-0.3,2.8-1.2l1.9,1.7c-1.1,1.3-2.6,2.1-4.7,2.1C146.4,69.2,143.9,66.8,143.9,63.3z M152,62.3
					c-0.2-1.5-1.1-2.5-2.4-2.5c-1.4,0-2.2,1-2.5,2.5H152z"/>
				<path class="st0" d="M156.3,65.6L156.3,65.6c0-2.6,1.9-3.7,4.6-3.7c1.2,0,2,0.2,2.8,0.5v-0.2c0-1.4-0.8-2.1-2.5-2.1
					c-1.2,0-2.1,0.2-3.2,0.6l-0.8-2.5c1.3-0.6,2.5-0.9,4.5-0.9c1.8,0,3.1,0.5,3.9,1.3c0.9,0.9,1.2,2.1,1.2,3.7V69h-3.2v-1.2
					c-0.8,0.9-1.9,1.5-3.5,1.5C158.1,69.2,156.3,67.9,156.3,65.6z M163.8,64.9v-0.6c-0.6-0.3-1.3-0.4-2.1-0.4
					c-1.4,0-2.3,0.6-2.3,1.6v0c0,0.9,0.7,1.4,1.8,1.4C162.7,66.9,163.8,66.1,163.8,64.9z"/>
				<path class="st0" d="M168.2,63.3L168.2,63.3c0-3.3,2.5-6,6-6c2.2,0,3.5,0.7,4.6,1.9l-2,2.1c-0.7-0.8-1.5-1.3-2.6-1.3
					c-1.6,0-2.8,1.4-2.8,3.1v0c0,1.8,1.1,3.2,2.9,3.2c1.1,0,1.8-0.5,2.6-1.2l1.9,1.9c-1.1,1.2-2.4,2.1-4.7,2.1
					C170.8,69.2,168.2,66.5,168.2,63.3z"/>
				<path class="st0" d="M179.4,63.3L179.4,63.3c0-3.3,2.3-6,5.7-6c3.8,0,5.6,3,5.6,6.3c0,0.3,0,0.6,0,0.9h-8
					c0.3,1.5,1.4,2.3,2.8,2.3c1.1,0,1.9-0.3,2.8-1.2l1.9,1.7c-1.1,1.3-2.6,2.1-4.7,2.1C181.9,69.2,179.4,66.8,179.4,63.3z
					 M187.5,62.3c-0.2-1.5-1.1-2.5-2.4-2.5c-1.4,0-2.2,1-2.5,2.5H187.5z"/>
			</g>
			<g>
				<path class="st0" d="M130.9,79.6L130.9,79.6c0-4.3,3.2-7.8,7.8-7.8c2.8,0,4.5,0.9,5.9,2.3l-2.1,2.4c-1.2-1.1-2.3-1.7-3.8-1.7
					c-2.5,0-4.4,2.1-4.4,4.7v0c0,2.6,1.8,4.7,4.4,4.7c1.7,0,2.8-0.7,4-1.8l2.1,2.1c-1.5,1.7-3.3,2.7-6.2,2.7
					C134.2,87.3,130.9,83.9,130.9,79.6z"/>
				<path class="st0" d="M145.5,81.4L145.5,81.4c0-3.4,2.7-6,6.3-6c3.6,0,6.2,2.6,6.2,6v0c0,3.3-2.7,6-6.3,6
					C148.1,87.3,145.5,84.7,145.5,81.4z M154.7,81.4L154.7,81.4c0-1.7-1.2-3.2-3-3.2c-1.9,0-3,1.4-3,3.1v0c0,1.7,1.2,3.2,3,3.2
					C153.6,84.5,154.7,83.1,154.7,81.4z"/>
				<path class="st0" d="M159.5,75.5h3.3v2.3c0.7-1.6,1.7-2.6,3.7-2.5v3.4h-0.2c-2.2,0-3.5,1.3-3.5,4.1v4.3h-3.3V75.5z"/>
				<path class="st0" d="M168,75.5h3.3v1.7c0.8-1.1,1.9-1.9,3.6-1.9c2.7,0,5.2,2.1,5.2,6v0c0,3.8-2.5,6-5.2,6
					c-1.7,0-2.8-0.8-3.6-1.7v4.9H168V75.5z M176.8,81.3L176.8,81.3c0-2-1.3-3.2-2.8-3.2s-2.8,1.3-2.8,3.2v0c0,1.9,1.3,3.2,2.8,3.2
					S176.8,83.3,176.8,81.3z"/>
				<path class="st0" d="M180.7,85.5l1.4-2.1c1.2,0.9,2.6,1.4,3.6,1.4c0.9,0,1.4-0.3,1.4-0.9v0c0-0.7-1.1-0.9-2.4-1.3
					c-1.6-0.5-3.4-1.2-3.4-3.5v0c0-2.3,1.9-3.7,4.2-3.7c1.5,0,3.1,0.5,4.3,1.3l-1.2,2.3c-1.1-0.7-2.3-1.1-3.1-1.1
					c-0.8,0-1.2,0.3-1.2,0.8v0c0,0.6,1.1,0.9,2.3,1.4c1.6,0.5,3.5,1.3,3.5,3.4v0c0,2.6-1.9,3.7-4.4,3.7
					C184,87.3,182.2,86.7,180.7,85.5z"/>
			</g>
		</g>
		<g>
			<path class="st0" d="M88,36.2c-18.7,0-33.9,14.9-34.4,33.4c8.9-1.5,18.6,3.4,24.1,6.8c11.7,7.3,21.5,6.9,26.7,3.3
				c-4.2,3.7-12.6,5.4-24.1,1.4c-6-2.1-10.9-2.8-14.8-2.8c-4.9,0-8.3,1.1-10.4,2.2c1.3,4.4,3.5,8.4,6.3,11.8c5.7-5.3,13.7-7,27-6.5
				c8.4,0.3,13.7-1.7,16.8-5c-2.5,3.3-7,5.6-13.3,6.9C80.4,90,73.8,92.6,70.2,100c5.2,3.2,11.3,5,17.9,5c19,0,34.4-15.4,34.4-34.4
				C122.4,51.6,107,36.2,88,36.2z"/>
			<path class="st1" d="M108,60.3c-2.5,0.7-3.1,2.8-4.7,5c0-0.9-0.1-1.9-0.3-3c-1.3-5.1-6.4-7.9-12.2-8.5c-3-0.3-5.6-0.3-11.1-1
				c0.1,1.4,4.3,13.8,13.7,17.3c-7.3,0.3-14.6-1.8-16.3-2.4c0.6,0.7,1.3,1.4,1.9,2.1c9.4,11.6,17.9,11.9,24.4,8.6
				c3.1-1.5,4.5-4.1,5.4-6.6c0,0,0,0,0,0c1.2-4.4,0.6-8.3,4.6-9.6C112.6,60.8,110.8,59.5,108,60.3z"/>
			<path class="st2" d="M103.5,78.5c-6.6,3.2-15,2.9-24.4-8.6c-7-8.6-15.3-11.9-22.7-12.6c-1.6,3.8-2.6,8-2.7,12.4
				c8.9-1.5,18.6,3.4,24.1,6.8c11.7,7.3,21.5,6.9,26.7,3.3c-4.2,3.7-12.6,5.4-24.1,1.4c-6-2.1-10.9-2.8-14.8-2.8
				c-4.9,0-8.3,1.1-10.4,2.2c1.3,4.4,3.5,8.4,6.3,11.8c5.7-5.3,13.7-7,27-6.5c14.8,0.5,19.9-6.1,20.5-14
				C108,74.5,106.6,77,103.5,78.5z"/>
		</g>
		<g>
			<path class="st3" d="M134.4,102.4h-0.8v-6.5h-2.5v-0.8h5.7v0.8h-2.5V102.4z"/>
			<path class="st3" d="M141.3,102.5c-2.2,0-3.7-1.7-3.7-3.8s1.5-3.8,3.7-3.8c2.2,0,3.7,1.7,3.7,3.8
				C145,100.8,143.5,102.5,141.3,102.5z M141.3,95.8c-1.7,0-2.9,1.3-2.9,3c0,1.7,1.2,3,2.9,3c1.7,0,2.9-1.3,2.9-3
				C144.2,97.1,143,95.8,141.3,95.8z"/>
			<path class="st3" d="M150.2,102.5c-2.3,0-3.7-1.7-3.7-3.8c0-2,1.5-3.8,3.7-3.8c1.2,0,2,0.4,2.7,1l-0.5,0.6
				c-0.6-0.5-1.2-0.8-2.2-0.8c-1.6,0-2.8,1.4-2.8,3c0,1.8,1.1,3,2.9,3c0.8,0,1.6-0.3,2.1-0.7v-1.8h-2.2v-0.7h3v2.9
				C152.4,102,151.4,102.5,150.2,102.5z"/>
			<path class="st3" d="M158.3,102.5c-2.2,0-3.7-1.7-3.7-3.8s1.5-3.8,3.7-3.8c2.2,0,3.7,1.7,3.7,3.8
				C162.1,100.8,160.6,102.5,158.3,102.5z M158.3,95.8c-1.7,0-2.9,1.3-2.9,3c0,1.7,1.2,3,2.9,3c1.7,0,2.9-1.3,2.9-3
				C161.2,97.1,160,95.8,158.3,95.8z"/>
		</g>
	</g>
</g>
</svg>
