<?xml version="1.0" encoding="utf-8"?>
<!-- Generator: Adobe Illustrator 26.5.0, SVG Export Plug-In . SVG Version: 6.00 Build 0)  -->
<svg version="1.1" id="Layer_1" xmlns="http://www.w3.org/2000/svg" xmlns:xlink="http://www.w3.org/1999/xlink" x="0px" y="0px"
	 viewBox="0 0 250 128" style="enable-background:new 0 0 250 128;" xml:space="preserve">
<style type="text/css">
	.st0{fill:none;}
	.st1{fill:#223F92;}
	.st2{fill:url(#SVGID_1_);}
	.st3{fill:url(#SVGID_00000143614554791538296130000002982327996387478719_);}
	.st4{fill:url(#SVGID_00000139274100685700183010000000883981431714872745_);}
	.st5{fill:url(#SVGID_00000099655081098600320720000004189571416198087349_);}
	.st6{fill:url(#SVGID_00000027594298209929463710000016197457387751498126_);}
	.st7{fill:url(#SVGID_00000160871458209019615340000004058329012635616407_);}
	.st8{fill:#00A6E7;}
	.st9{fill:#EF8B1E;}
	.st10{fill:#6D6E70;}
</style>
<g>
	<path class="st0" d="M52.3,74.7c0.2,0.2,0.4,0.5,0.6,0.8c0,0,0,0.1,0.1,0.1C52.7,75.3,52.5,75,52.3,74.7z"/>
	<path class="st1" d="M53.7,77.3c0.2,0.6,0.3,1.2,0.3,1.9c0,0.7,0,1.4-0.1,2C54.2,79.7,54.1,78.4,53.7,77.3z"/>
	<path class="st1" d="M52.7,84.1C52.7,84.1,52.7,84.1,52.7,84.1c-1,1.5-2.5,2.6-4.4,3.1C49.8,86.8,51.5,86,52.7,84.1z"/>
	<path class="st1" d="M62.9,44.4c0-0.1,0-0.1-0.1-0.2c0,0,0,0,0,0c0,0,0,0,0-0.1c0,0,0-0.1,0-0.1c-1.1-5.9-5.6-11-11.9-12.4
		C42.7,30,34.6,35,32.7,43.2c-1.3,5.3,0,10,3.6,14.1c5.2,5.7,10.4,11.4,15.7,17.1c0.1,0.1,0.2,0.3,0.4,0.4c0.2,0.3,0.4,0.6,0.6,0.9
		c2,2.8,6.3,9.5,4.9,14.3c1.8-2,3.1-4.5,3.6-7.4c0.9-5-0.4-9.5-3.8-13.2C52.5,63.5,47.2,57.8,42,52.1c-2.6-2.8-2.8-6.9-0.5-10
		c2-2.6,5.4-3.8,8.5-2.8c3.1,0.9,5.3,3.7,5.5,7c0.1,2.5-0.7,4.6-2.5,6.3c-0.9,0.9-1.9,1.8-2.8,2.6c0.7-0.5,2-1.4,3.7-2.7
		c0,0,0,0,0.1,0c0,0,0,0,0.1-0.1l0,0l0.2-0.2c0,0,0,0,0.1-0.1c0,0,0.1,0,0.1-0.1c0,0,0.1,0,0.1-0.1c0.1,0,0.1-0.1,0.2-0.1
		c0.1-0.1,0.2-0.1,0.3-0.2c0.5-0.4,1.3-1,1.9-1.4c1-0.7,1.2-1.5,2.2-1.6c0.4-0.1,1.1-0.1,1.4-1c0.1-0.3,0-0.8,0.6-1.1
		c0.8-0.4,1.5,0,2-1c0.1-0.2,0.2-0.5,0.1-0.8v0C63,44.7,63,44.6,62.9,44.4z"/>
	<linearGradient id="SVGID_1_" gradientUnits="userSpaceOnUse" x1="39.5985" y1="78.3504" x2="54.8153" y2="74.273">
		<stop  offset="0.2095" style="stop-color:#223F92"/>
		<stop  offset="0.4335" style="stop-color:#213D8F"/>
		<stop  offset="0.5931" style="stop-color:#1C3686"/>
		<stop  offset="0.7328" style="stop-color:#152A76"/>
		<stop  offset="0.8603" style="stop-color:#0B1A60"/>
		<stop  offset="0.933" style="stop-color:#030E50"/>
	</linearGradient>
	<path class="st2" d="M51.9,74.3c0,0,0.4,0.5,0.9,1.2c-0.2-0.3-0.4-0.6-0.6-0.8C52.2,74.6,52,74.4,51.9,74.3z"/>
	
		<linearGradient id="SVGID_00000111876798224245351700000015255367087946053004_" gradientUnits="userSpaceOnUse" x1="41.5837" y1="85.7595" x2="56.8006" y2="81.6822">
		<stop  offset="0.2095" style="stop-color:#223F92"/>
		<stop  offset="0.4335" style="stop-color:#213D8F"/>
		<stop  offset="0.5931" style="stop-color:#1C3686"/>
		<stop  offset="0.7328" style="stop-color:#152A76"/>
		<stop  offset="0.8603" style="stop-color:#0B1A60"/>
		<stop  offset="0.933" style="stop-color:#030E50"/>
	</linearGradient>
	<path style="fill:url(#SVGID_00000111876798224245351700000015255367087946053004_);" d="M52.7,84.1c0.6-0.9,1-1.8,1.2-2.9
		C53.7,82.1,53.3,83.1,52.7,84.1z"/>
	
		<linearGradient id="SVGID_00000176747400648906577760000018408445663451156393_" gradientUnits="userSpaceOnUse" x1="42.2764" y1="88.3445" x2="57.4933" y2="84.2672">
		<stop  offset="0.2095" style="stop-color:#223F92"/>
		<stop  offset="0.4335" style="stop-color:#213D8F"/>
		<stop  offset="0.5931" style="stop-color:#1C3686"/>
		<stop  offset="0.7328" style="stop-color:#152A76"/>
		<stop  offset="0.8603" style="stop-color:#0B1A60"/>
		<stop  offset="0.933" style="stop-color:#030E50"/>
	</linearGradient>
	<path style="fill:url(#SVGID_00000176747400648906577760000018408445663451156393_);" d="M47.5,87.4c0.3,0,0.5-0.1,0.8-0.2
		c-1.8,0.4-3.3,0.2-3.7,0.1C45.5,87.5,46.5,87.5,47.5,87.4z"/>
	
		<linearGradient id="SVGID_00000112590500356701038050000011319859644340971168_" gradientUnits="userSpaceOnUse" x1="40.0322" y1="79.9692" x2="55.2491" y2="75.8918">
		<stop  offset="0.2095" style="stop-color:#223F92"/>
		<stop  offset="0.4335" style="stop-color:#213D8F"/>
		<stop  offset="0.5931" style="stop-color:#1C3686"/>
		<stop  offset="0.7328" style="stop-color:#152A76"/>
		<stop  offset="0.8603" style="stop-color:#0B1A60"/>
		<stop  offset="0.933" style="stop-color:#030E50"/>
	</linearGradient>
	<path style="fill:url(#SVGID_00000112590500356701038050000011319859644340971168_);" d="M52.9,75.5c0.3,0.5,0.6,1.1,0.8,1.8
		C53.5,76.7,53.2,76.2,52.9,75.5C52.9,75.6,52.9,75.6,52.9,75.5z"/>
	
		<linearGradient id="SVGID_00000179644402090981326910000005078493808978846364_" gradientUnits="userSpaceOnUse" x1="44.0052" y1="94.7966" x2="59.2221" y2="90.7193">
		<stop  offset="0.2095" style="stop-color:#223F92"/>
		<stop  offset="0.4335" style="stop-color:#213D8F"/>
		<stop  offset="0.5931" style="stop-color:#1C3686"/>
		<stop  offset="0.7328" style="stop-color:#152A76"/>
		<stop  offset="0.8603" style="stop-color:#0B1A60"/>
		<stop  offset="0.933" style="stop-color:#030E50"/>
	</linearGradient>
	<path style="fill:url(#SVGID_00000179644402090981326910000005078493808978846364_);" d="M53,93.6c3.3-1.5,4.9-3.7,4.9-3.7
		c0,0,0,0,0,0C56.5,91.4,54.8,92.7,53,93.6z"/>
	<path class="st1" d="M51.9,74.3c0.1,0.1,0.2,0.3,0.4,0.4C52.2,74.6,52,74.4,51.9,74.3z"/>
	
		<linearGradient id="SVGID_00000054260127148073998740000007011442948089154463_" gradientUnits="userSpaceOnUse" x1="39.4782" y1="77.9015" x2="54.6951" y2="73.8241">
		<stop  offset="0.2095" style="stop-color:#223F92"/>
		<stop  offset="0.4335" style="stop-color:#213D8F"/>
		<stop  offset="0.5931" style="stop-color:#1C3686"/>
		<stop  offset="0.7328" style="stop-color:#152A76"/>
		<stop  offset="0.8603" style="stop-color:#0B1A60"/>
		<stop  offset="0.933" style="stop-color:#030E50"/>
	</linearGradient>
	<path style="fill:url(#SVGID_00000054260127148073998740000007011442948089154463_);" d="M51.9,74.3c0.1,0.1,0.2,0.3,0.4,0.4
		C52.2,74.6,52,74.4,51.9,74.3z"/>
	<path class="st8" d="M136.8,53.8h-1.7c-0.6,0-1.1-0.5-1.1-1.1V52c0-0.6,0.5-1.1,1.1-1.1h9.1c0.6,0,1.1,0.5,1.1,1.1v0.7
		c0,0.6-0.5,1.1-1.1,1.1h-1.7c-0.6,0-1.1,0.5-1.1,1.1v7.6c0,0.6-0.5,1.1-1.1,1.1h-1.4c-0.6,0-1.1-0.5-1.1-1.1v-7.6
		C137.8,54.2,137.4,53.8,136.8,53.8z"/>
	<path class="st8" d="M151.4,60.1h-0.3c-0.6,0-1.1,0.5-1.1,1.1v1.2c0,0.6-0.5,1.1-1.1,1.1h-1.4c-0.6,0-1.1-0.5-1.1-1.1V52
		c0-0.6,0.5-1.1,1.1-1.1h4.6c3.4,0,5.5,1.8,5.5,4.6c0,1.5-0.6,2.6-1.6,3.4c-0.4,0.3-0.6,1-0.2,1.4l0.9,1.4c0.5,0.7,0,1.6-0.9,1.6
		h-1.2c-0.3,0-0.7-0.2-0.9-0.5l-1.6-2.4C152.1,60.3,151.7,60.1,151.4,60.1z M152,53.7h-0.9c-0.6,0-1.1,0.5-1.1,1.1v1.5
		c0,0.6,0.5,1.1,1.1,1.1h0.9c1.5,0,2.2-0.7,2.2-1.8C154.2,54.4,153.4,53.7,152,53.7z"/>
	<path class="st8" d="M167.3,61h-3.9c-0.4,0-0.8,0.3-1,0.7l-0.4,1.1c-0.2,0.4-0.5,0.7-1,0.7h-1.3c-0.8,0-1.3-0.8-1-1.5l4.6-10.4
		c0.2-0.4,0.5-0.6,1-0.6h2.1c0.4,0,0.8,0.2,1,0.6L172,62c0.3,0.7-0.2,1.5-1,1.5h-1.3c-0.4,0-0.8-0.3-1-0.7l-0.4-1.1
		C168.1,61.3,167.7,61,167.3,61z M166.4,57l0-0.1c-0.4-0.9-1.6-0.9-1.9,0l0,0.1c-0.3,0.7,0.2,1.4,1,1.4h0.1
		C166.2,58.4,166.7,57.7,166.4,57z"/>
	<path class="st8" d="M185,52.4l-4.4,10.4c-0.2,0.4-0.5,0.6-1,0.6h-2.1c-0.4,0-0.8-0.3-1-0.6l-4.4-10.4c-0.3-0.7,0.2-1.5,1-1.5h1.5
		c0.4,0,0.8,0.3,1,0.6l2.2,5.2c0.4,0.9,1.6,0.9,1.9,0l2.2-5.2c0.2-0.4,0.5-0.6,1-0.6h1.2C184.8,51,185.3,51.7,185,52.4z"/>
	<path class="st8" d="M196.3,61.8v0.6c0,0.6-0.5,1.1-1.1,1.1h-7.9c-0.6,0-1.1-0.5-1.1-1.1V52c0-0.6,0.5-1.1,1.1-1.1h7.7
		c0.6,0,1.1,0.5,1.1,1.1v0.6c0,0.6-0.5,1.1-1.1,1.1h-4.2c-0.6,0-1.1,0.5-1.1,1.1v0c0,0.6,0.5,1.1,1.1,1.1h3.4c0.6,0,1.1,0.5,1.1,1.1
		v0.5c0,0.6-0.5,1.1-1.1,1.1h-3.4c-0.6,0-1.1,0.5-1.1,1.1v0.2c0,0.6,0.5,1.1,1.1,1.1h4.4C195.9,60.7,196.3,61.2,196.3,61.8z"/>
	<path class="st8" d="M199.3,51h1.4c0.6,0,1.1,0.5,1.1,1.1v7.6c0,0.6,0.5,1.1,1.1,1.1h3.8c0.6,0,1.1,0.5,1.1,1.1v0.7
		c0,0.6-0.5,1.1-1.1,1.1h-7.4c-0.6,0-1.1-0.5-1.1-1.1V52C198.3,51.4,198.8,51,199.3,51z"/>
	<path class="st8" d="M157.3,69.7H156c-0.7,0-1.3-0.6-1.3-1.3v-0.3c0-0.7,0.6-1.3,1.3-1.3h8.6c0.7,0,1.3,0.6,1.3,1.3v0.3
		c0,0.7-0.6,1.3-1.3,1.3h-1.3c-0.7,0-1.3,0.6-1.3,1.3v7.1c0,0.7-0.6,1.3-1.3,1.3h-1c-0.7,0-1.3-0.6-1.3-1.3V71
		C158.6,70.3,158,69.7,157.3,69.7z"/>
	<path class="st8" d="M166.4,73.2c0-3.7,2.9-6.5,6.9-6.5c4,0,6.9,2.7,6.9,6.5c0,3.7-2.9,6.5-6.9,6.5
		C169.3,79.6,166.4,76.9,166.4,73.2z M176.7,73.2c0-2.2-1.5-3.6-3.4-3.6c-1.9,0-3.4,1.4-3.4,3.6c0,2.2,1.5,3.6,3.4,3.6
		C175.2,76.7,176.7,75.3,176.7,73.2z"/>
	<path class="st8" d="M182,73.8v-5.6c0-0.7,0.6-1.3,1.3-1.3h1c0.7,0,1.3,0.6,1.3,1.3v5.5c0,2.1,0.9,3,2.4,3c1.5,0,2.3-0.9,2.3-3
		v-5.5c0-0.7,0.6-1.3,1.3-1.3h1c0.7,0,1.3,0.6,1.3,1.3v5.6c0,3.7-2.2,5.8-5.9,5.8S182,77.6,182,73.8z"/>
	<path class="st8" d="M200.9,76.1L200.9,76.1c-0.7,0-1.3,0.6-1.3,1.3v0.8c0,0.7-0.6,1.3-1.3,1.3h-1c-0.7,0-1.3-0.6-1.3-1.3v-9.9
		c0-0.7,0.6-1.3,1.3-1.3h4.4c3.4,0,5.5,1.8,5.5,4.6c0,1.4-0.5,2.6-1.5,3.3c-0.5,0.4-0.6,1.1-0.2,1.7l0.6,0.9c0.6,0.8,0,2-1,2h-0.7
		c-0.4,0-0.8-0.2-1-0.5l-1.5-2.2C201.7,76.3,201.3,76.1,200.9,76.1z M201.6,69.7h-0.7c-0.7,0-1.3,0.6-1.3,1.3v1.1
		c0,0.7,0.6,1.3,1.3,1.3h0.7c1.5,0,2.2-0.7,2.2-1.8C203.7,70.4,203,69.7,201.6,69.7z"/>
	<path class="st8" d="M208.8,77.2l0.1-0.3c0.3-0.6,1-0.9,1.6-0.6c0.9,0.4,2,0.6,3,0.6c1.5,0,2-0.4,2-1c0-2-7.1-0.5-7.1-5.2
		c0-2.2,1.8-4,5.5-4c1.1,0,2.3,0.2,3.3,0.5c0.7,0.2,1,1,0.7,1.7l-0.1,0.3c-0.3,0.6-1,0.9-1.6,0.7c-0.8-0.3-1.6-0.4-2.3-0.4
		c-1.5,0-2,0.5-2,1.1c0,1.9,7.1,0.5,7.1,5.1c0,2.2-1.8,4-5.5,4c-1.5,0-3-0.3-4.1-0.8C208.8,78.6,208.6,77.9,208.8,77.2z"/>
	<path class="st9" d="M148.2,79.3l-0.6-0.6c-0.3-0.3-0.7-0.3-1-0.1c-1,0.8-2.3,1.2-3.7,1.2c-2.5,0-4.4-1.3-4.4-3.2
		c0-1.3,0.7-2.3,2.3-3.4c0.4-0.2,0.4-0.7,0.2-1.1c-0.7-0.8-0.9-1.5-0.9-2.2c0-1.7,1.3-2.8,3.4-2.8c1.9,0,3.1,1,3.1,2.6
		c0,1.1-0.5,1.9-1.9,2.8c-0.4,0.2-0.4,0.8-0.1,1.1l1.7,1.7c0.4,0.4,1,0.2,1.2-0.3c0.1-0.2,0.1-0.3,0.2-0.5c0.1-0.4,0.5-0.6,0.9-0.5
		h0c0.4,0.1,0.6,0.5,0.5,0.9c-0.2,0.6-0.4,1.2-0.7,1.7c-0.1,0.3-0.1,0.6,0.1,0.8l0.8,0.8c0.3,0.3,0.3,0.7,0,1l0,0
		C149,79.6,148.5,79.6,148.2,79.3z M145.5,76.6l-2.6-2.6c-0.2-0.2-0.6-0.3-0.9-0.1c-1.4,0.8-1.8,1.5-1.8,2.4c0,1.2,1.1,2,2.8,2
		c0.9,0,1.7-0.2,2.4-0.6C145.8,77.5,145.9,76.9,145.5,76.6z M141.7,69.8c0,0.5,0.2,1,0.9,1.7c0.2,0.3,0.6,0.3,0.9,0.1
		c1.2-0.8,1.7-1.3,1.7-2c0-0.8-0.6-1.4-1.7-1.4C142.4,68.3,141.7,68.9,141.7,69.8z"/>
	<path class="st1" d="M73.5,78h-0.8c-1.5,0-2.7-1.2-2.7-2.7V53.7c0-1.5,1.2-2.7,2.7-2.7h0.8c1.5,0,2.7,1.2,2.7,2.7v21.7
		C76.2,76.8,75,78,73.5,78z"/>
	<path class="st1" d="M82.7,75.4V53.7c0-1.5,1.2-2.6,2.6-2.6h6.9c9.6,0,14.4,4.4,14.4,13.2c0,4.2-1.3,7.6-3.9,10.1
		c-2.6,2.5-6.1,3.8-10.5,3.8h-6.9C83.9,78,82.7,76.9,82.7,75.4z M88.8,58.6v11.9c0,1.5,1.2,2.6,2.6,2.6h0.4c2.6,0,4.7-0.8,6.2-2.4
		c1.5-1.6,2.3-3.7,2.3-6.5c0-2.6-0.7-4.6-2.2-6.1c-1.5-1.5-3.6-2.2-6.3-2.2h-0.3C90,56,88.8,57.2,88.8,58.6z"/>
	<path class="st1" d="M126.5,78h-12.3c-1.1,0-2-0.9-2-2V53c0-1.1,0.9-2,2-2h11.6c1.1,0,2,0.9,2,2v1c0,1.1-0.9,2-2,2h-5.6
		c-1.1,0-2,0.9-2,2V60c0,1.1,0.9,2,2,2h4.9c1.1,0,2,0.9,2,2v1c0,1.1-0.9,2-2,2h-4.9c-1.1,0-2,0.9-2,2v2.2c0,1.1,0.9,2,2,2h6.2
		c1.1,0,2,0.9,2,2v1C128.4,77.1,127.5,78,126.5,78z"/>
	<path class="st8" d="M77.8,40.6c-3.6-0.8-7.1-1.5-10.8-2.3c0.6-0.3,1-0.6,1.5-0.8c0.1-0.1,0.3,0,0.4,0c2.3,0.3,4.5,0.5,6.8,0.8
		c0.2,0,0.3,0,0.5-0.1c0.4-0.1,0.9-0.3,1.3-0.4c0.6-0.1,0.8,0,0.9,0.7c1,0.1,2,0.2,3,0.3c0.2,0,0.3-0.1,0.5-0.2
		c0.5-0.2,0.9-0.4,1.5-0.1c0.1,0.1,0.3,0,0.5-0.1c2-0.8,4-1.6,6-2.4c1.1-0.4,2.2-0.3,3.2-0.1c0.5,0.1,0.7,0.5,0.3,0.9
		c-0.4,0.4-0.8,0.8-1.3,1.1c-1.5,0.7-2.9,1.4-4.4,1.9c-0.8,0.3-1.1,0.8-1.4,1.5c0.4,0,0.8-0.1,1.1-0.1c0.2,0,0.4-0.1,0.6-0.1
		c0.1,0,0.3,0.1,0.4,0.2c0,0.1,0,0.3-0.1,0.4c-0.2,0.2-0.4,0.3-0.7,0.4c0.3,0.5,0,0.7-0.4,0.9c-0.4,0.2-0.8,0.3-1.2,0.5
		c-0.2,0.1-0.5,0-0.8,0c-0.2,0.1-0.6,0.4-0.9,0.6c-0.3-0.5-0.6-1-0.9-1.4c-0.5-0.8-0.5-0.7-1.3-0.4c-1.9,0.7-3.7,1.3-5.6,1.9
		c-0.9,0.3-1.8,0.3-2.7,0.5c-0.2,0.6-0.8,0.8-1.3,0.5c-0.5-0.3-0.9-0.7-1.5-0.5c-1.3-0.7-2.7-0.5-4-0.9c1.1-1,2.5-0.5,3.9-0.6
		c-0.3-0.8-0.5-1.6-0.7-2.4c-0.2-0.7-0.3-0.6,0.4-0.9c0.5-0.2,0.9-0.2,1.3,0.2c0.5,0.5,1,0.8,1.5,1.3c0.8,0.8,1.6,0.7,2.5,0.3
		c0.6-0.3,1.2-0.6,1.8-0.9C77.8,40.7,77.8,40.7,77.8,40.6"/>
	<path class="st8" d="M60.2,51.8c0.1-0.4-0.1-0.7-0.5-0.8c-0.4-0.1-0.7,0.1-0.8,0.5c-0.1,0.4,0.1,0.7,0.5,0.8
		C59.8,52.4,60.1,52.2,60.2,51.8"/>
	<path class="st8" d="M62.6,52.1c0.1-0.4-0.1-0.7-0.5-0.8c-0.4-0.1-0.7,0.1-0.8,0.5c-0.1,0.4,0.1,0.7,0.5,0.8
		C62.2,52.7,62.6,52.4,62.6,52.1"/>
	<path class="st8" d="M64.3,50.4c0.1-0.4-0.1-0.7-0.5-0.8c-0.4-0.1-0.7,0.1-0.8,0.5c-0.1,0.4,0.1,0.7,0.5,0.8
		C63.9,50.9,64.2,50.7,64.3,50.4"/>
	<path class="st8" d="M63.8,52.1c-0.1,0.4,0.1,0.9,0.5,1c0.4,0.1,0.8-0.1,1-0.5c0.1-0.4-0.1-0.9-0.5-1
		C64.4,51.4,63.9,51.7,63.8,52.1"/>
	<path class="st8" d="M67.3,51.1c0.1-0.4-0.1-0.9-0.5-1c-0.4-0.1-0.8,0.1-1,0.5c-0.1,0.4,0.1,0.9,0.5,1
		C66.7,51.8,67.2,51.5,67.3,51.1"/>
	<path class="st8" d="M65.7,48.2c-0.4-0.1-0.8,0.1-1,0.5c-0.1,0.4,0.1,0.9,0.5,1c0.4,0.1,0.8-0.1,1-0.5
		C66.3,48.8,66.1,48.4,65.7,48.2"/>
	<path class="st8" d="M57.4,50.7c-0.4-0.1-0.8,0.1-1,0.5c-0.1,0.4,0.1,0.9,0.5,1c0.4,0.1,0.8-0.1,1-0.5C58,51.3,57.8,50.8,57.4,50.7
		"/>
	<path class="st8" d="M58.1,52.9c-0.4-0.1-0.8,0.1-0.9,0.5c-0.1,0.4,0.1,0.8,0.5,0.9c0.4,0.1,0.8-0.1,0.9-0.5
		C58.7,53.4,58.4,53,58.1,52.9"/>
	<path class="st8" d="M73.1,46.3c-0.4-0.1-0.8,0.1-1,0.5c-0.1,0.4,0.1,0.9,0.5,1c0.4,0.1,0.8-0.1,1-0.5
		C73.8,46.9,73.6,46.4,73.1,46.3"/>
	<path class="st8" d="M63.3,53c-0.4-0.1-0.7,0.1-0.8,0.5c-0.1,0.4,0.1,0.7,0.5,0.8c0.4,0.1,0.7-0.1,0.8-0.5
		C63.9,53.5,63.6,53.1,63.3,53"/>
	<path class="st8" d="M67.6,47.2c-0.3-0.1-0.7,0.1-0.8,0.4c0,0,0,0,0,0c-0.1,0.4,0.1,0.7,0.5,0.8c0.4,0.1,0.7-0.1,0.8-0.5
		c0,0,0,0,0,0C68.1,47.6,67.9,47.3,67.6,47.2"/>
	<path class="st8" d="M62,54.1c-0.1,0-0.3,0-0.4,0c-0.2,0.1-0.4,0.2-0.4,0.5c-0.1,0.4,0.1,0.7,0.5,0.8c0.4,0.1,0.7-0.1,0.8-0.5
		c0-0.2,0-0.3,0-0.5C62.3,54.3,62.2,54.2,62,54.1"/>
	<path class="st8" d="M58.8,55.8c-0.3-0.1-0.4-0.4-0.4-0.6c0.1-0.3,0.4-0.4,0.6-0.4c0.3,0.1,0.4,0.4,0.4,0.6
		C59.3,55.7,59.1,55.9,58.8,55.8"/>
	<path class="st8" d="M60.4,54c-0.4-0.1-0.6-0.5-0.5-0.8c0.1-0.4,0.5-0.6,0.8-0.5c0.4,0.1,0.6,0.5,0.5,0.8
		C61.2,53.9,60.8,54.1,60.4,54"/>
	<path class="st8" d="M54.9,54.3c-0.3-0.1-0.4-0.3-0.3-0.6c0.1-0.3,0.3-0.4,0.6-0.3c0.3,0.1,0.4,0.3,0.3,0.6
		C55.5,54.2,55.2,54.4,54.9,54.3"/>
	<path class="st8" d="M58.7,50.4c-0.3-0.1-0.4-0.3-0.3-0.6c0.1-0.3,0.3-0.4,0.6-0.3c0.3,0.1,0.4,0.3,0.3,0.6
		C59.2,50.3,58.9,50.5,58.7,50.4"/>
	<path class="st8" d="M61.2,48.7c-0.3-0.1-0.4-0.3-0.3-0.6c0.1-0.3,0.3-0.4,0.6-0.3c0.3,0.1,0.4,0.3,0.3,0.6
		C61.7,48.6,61.5,48.7,61.2,48.7"/>
	<path class="st8" d="M61.4,50.7c-0.3-0.1-0.4-0.3-0.3-0.6c0.1-0.3,0.3-0.4,0.6-0.3c0.3,0.1,0.4,0.3,0.3,0.6
		C61.9,50.6,61.6,50.7,61.4,50.7"/>
	<path class="st8" d="M59.8,57.3c-0.3-0.1-0.4-0.3-0.3-0.6c0.1-0.3,0.3-0.4,0.6-0.3c0.3,0.1,0.4,0.3,0.3,0.6
		C60.3,57.2,60.1,57.4,59.8,57.3"/>
	<path class="st8" d="M63,48.8c-0.3-0.1-0.4-0.3-0.3-0.6c0.1-0.3,0.3-0.4,0.6-0.3c0.3,0.1,0.4,0.3,0.3,0.6
		C63.5,48.7,63.2,48.9,63,48.8"/>
	<path class="st8" d="M70.8,48.3c-0.3-0.1-0.4-0.3-0.3-0.6c0.1-0.3,0.3-0.4,0.6-0.3c0.3,0.1,0.4,0.3,0.3,0.6
		C71.3,48.2,71,48.4,70.8,48.3"/>
	<path class="st8" d="M55.7,55.8c-0.3-0.1-0.4-0.3-0.3-0.6c0.1-0.3,0.3-0.4,0.6-0.3c0.3,0.1,0.4,0.3,0.3,0.6
		C56.3,55.7,56,55.8,55.7,55.8"/>
	<path class="st8" d="M57,57.3c-0.3-0.1-0.4-0.3-0.3-0.6c0.1-0.3,0.3-0.4,0.6-0.3c0.3,0.1,0.4,0.3,0.3,0.6
		C57.5,57.3,57.2,57.4,57,57.3"/>
	<path class="st8" d="M58.2,58.6c-0.3-0.1-0.4-0.3-0.3-0.6c0.1-0.3,0.3-0.4,0.6-0.3c0.3,0.1,0.4,0.3,0.3,0.6
		C58.7,58.5,58.5,58.7,58.2,58.6"/>
	<path class="st8" d="M75,46.8c-0.3-0.1-0.4-0.3-0.3-0.6c0.1-0.3,0.3-0.4,0.6-0.3c0.3,0.1,0.4,0.3,0.3,0.6
		C75.5,46.7,75.2,46.8,75,46.8"/>
	<path class="st8" d="M71.3,46.8c-0.3-0.1-0.4-0.3-0.3-0.6c0.1-0.3,0.3-0.4,0.6-0.3c0.3,0.1,0.4,0.3,0.3,0.6
		C71.8,46.7,71.5,46.8,71.3,46.8"/>
	<path class="st8" d="M69,47.3c-0.3-0.1-0.4-0.3-0.3-0.6c0.1-0.3,0.3-0.4,0.6-0.3c0.3,0.1,0.4,0.3,0.3,0.6
		C69.6,47.2,69.3,47.3,69,47.3"/>
	<path class="st8" d="M56.5,60.2c-0.3-0.1-0.4-0.3-0.3-0.6c0.1-0.3,0.3-0.4,0.6-0.3c0.3,0.1,0.4,0.3,0.3,0.6
		C57.1,60.2,56.8,60.3,56.5,60.2"/>
	<path class="st8" d="M55.5,58.8c-0.3-0.1-0.4-0.3-0.3-0.6c0.1-0.3,0.3-0.4,0.6-0.3c0.3,0.1,0.4,0.3,0.3,0.6
		C56,58.8,55.7,58.9,55.5,58.8"/>
	<path class="st8" d="M54.4,57.1C54.1,57,54,56.8,54,56.5c0.1-0.3,0.3-0.4,0.6-0.3c0.3,0.1,0.4,0.3,0.3,0.6
		C54.9,57,54.6,57.2,54.4,57.1"/>
	<path class="st8" d="M53.6,55.7c-0.3-0.1-0.4-0.3-0.3-0.6c0.1-0.3,0.3-0.4,0.6-0.3c0.3,0.1,0.4,0.3,0.3,0.6
		C54.2,55.6,53.9,55.7,53.6,55.7"/>
	<path class="st8" d="M52.5,56.3c-0.1,0-0.2-0.2-0.2-0.3c0-0.1,0.2-0.2,0.3-0.2c0.1,0,0.2,0.2,0.2,0.3
		C52.7,56.3,52.6,56.4,52.5,56.3"/>
	<path class="st8" d="M53,57.9c-0.1,0-0.2-0.2-0.2-0.3c0-0.1,0.2-0.2,0.3-0.2c0.1,0,0.2,0.2,0.2,0.3C53.3,57.9,53.2,58,53,57.9"/>
	<path class="st8" d="M54,59.6c-0.1,0-0.2-0.2-0.2-0.3c0-0.1,0.2-0.2,0.3-0.2c0.1,0,0.2,0.2,0.2,0.3C54.3,59.6,54.1,59.6,54,59.6"/>
	<path class="st8" d="M54.8,61.2c-0.1,0-0.2-0.2-0.2-0.3c0-0.1,0.2-0.2,0.3-0.2c0.1,0,0.2,0.2,0.2,0.3C55.1,61.1,55,61.2,54.8,61.2"
		/>
	<path class="st8" d="M53.4,61.9c-0.1,0-0.2-0.1-0.1-0.2c0-0.1,0.1-0.2,0.2-0.1c0.1,0,0.2,0.1,0.1,0.2C53.6,61.9,53.5,62,53.4,61.9"
		/>
	<path class="st8" d="M52.6,60.4c-0.1,0-0.2-0.1-0.1-0.2c0-0.1,0.1-0.2,0.2-0.1c0.1,0,0.2,0.1,0.1,0.2
		C52.8,60.4,52.7,60.5,52.6,60.4"/>
	<path class="st8" d="M51.5,58.8c-0.1,0-0.2-0.1-0.1-0.2c0-0.1,0.1-0.2,0.2-0.1c0.1,0,0.2,0.1,0.1,0.2
		C51.7,58.8,51.6,58.9,51.5,58.8"/>
	<path class="st8" d="M50.4,57.2c-0.1,0-0.2-0.1-0.1-0.2c0-0.1,0.1-0.2,0.2-0.1c0.1,0,0.2,0.1,0.1,0.2
		C50.6,57.2,50.5,57.2,50.4,57.2"/>
	<path class="st8" d="M69,48.6c-0.4-0.1-0.8,0.1-1,0.5c-0.1,0.4,0.1,0.9,0.5,1c0.4,0.1,0.8-0.1,1-0.5C69.7,49.1,69.4,48.7,69,48.6"
		/>
	<path class="st1" d="M63,44.9c0-0.1,0-0.3,0-0.4C63,44.6,63,44.8,63,44.9"/>
	<path class="st1" d="M62.9,44.3C62.9,44.3,62.9,44.3,62.9,44.3C62.9,44.3,62.9,44.2,62.9,44.3c0-0.1,0-0.1,0-0.2
		c0,0.1,0.1,0.2,0.1,0.3C62.9,44.4,62.9,44.4,62.9,44.3"/>
	<g>
		<path class="st8" d="M42.4,70.7c-0.1,0.1,0,0.3,0.1,0.3c0.1,0.1,0.3,0,0.3-0.1c0.1-0.1,0-0.3-0.1-0.3
			C42.6,70.5,42.4,70.5,42.4,70.7z"/>
		<path class="st8" d="M42.5,69.3c0.1-0.1,0-0.3-0.1-0.3c-0.1-0.1-0.3,0-0.3,0.1c-0.1,0.1,0,0.3,0.1,0.3
			C42.3,69.5,42.4,69.4,42.5,69.3z"/>
		<path class="st8" d="M41.8,67.6c0.1-0.1,0-0.3-0.1-0.3c-0.1-0.1-0.3,0-0.3,0.1c-0.1,0.1,0,0.3,0.1,0.3
			C41.6,67.8,41.8,67.7,41.8,67.6z"/>
		<path class="st8" d="M42.8,67.1c0.1-0.1,0-0.3-0.1-0.3s-0.3,0-0.3,0.1c-0.1,0.1,0,0.3,0.1,0.3C42.6,67.3,42.7,67.2,42.8,67.1z"/>
		<path class="st8" d="M44.3,66.4c0-0.1,0-0.2-0.1-0.3c-0.1,0-0.2,0-0.3,0.1c0,0.1,0,0.2,0.1,0.3C44.1,66.6,44.2,66.5,44.3,66.4z"/>
		<path class="st8" d="M44.8,67.9c0-0.1,0-0.2-0.1-0.3c-0.1,0-0.2,0-0.3,0.1c0,0.1,0,0.2,0.1,0.3C44.7,68.1,44.8,68,44.8,67.9z"/>
		<path class="st8" d="M44,68.5c0-0.1,0-0.2-0.1-0.3c-0.1,0-0.2,0-0.3,0.1c0,0.1,0,0.2,0.1,0.3C43.9,68.7,44,68.6,44,68.5z"/>
		<path class="st8" d="M52.9,75.6c0.3,0.5,0.6,1.1,0.8,1.7c0.4,1.1,0.5,2.4,0.2,3.9c-0.2,1-0.6,2-1.2,2.9c0,0,0,0,0,0.1
			c-1.2,1.9-2.9,2.7-4.4,3.1c-0.3,0.1-0.5,0.1-0.8,0.2c-1,0.2-2,0.1-2.9-0.1c-3.6-0.8-6.3-4.1-6.1-8c0.1-2.1,1-3.9,2.5-5.4
			c1-0.9,1.9-1.8,2.9-2.6l0,0c-0.4,0.3-0.9,0.6-1.5,1.1c0-0.1-0.1-0.2-0.3-0.3c-0.2-0.1-0.5,0-0.6,0.3c-0.1,0.2,0,0.5,0.2,0.6
			c-0.3,0.2-0.5,0.4-0.8,0.6c0-0.1-0.1-0.1-0.2-0.2c-0.2-0.1-0.5,0-0.6,0.3c-0.1,0.2,0,0.3,0.1,0.5c0,0,0,0,0,0
			c0-0.1-0.1-0.1-0.2-0.1c-0.2-0.1-0.4,0-0.5,0.1c-0.1-0.1-0.2-0.2-0.3-0.2c-0.3-0.1-0.7,0-0.8,0.3c-0.1,0.2,0,0.5,0.1,0.7
			c0,0-0.1,0.1-0.1,0.2c-0.1,0.2-0.1,0.4,0,0.5c-0.3,0.2-0.5,0.4-0.8,0.7c0,0-0.1-0.1-0.2-0.1c-0.3-0.1-0.7,0-0.8,0.3
			c0,0.1-0.1,0.2,0,0.4c0,0-0.1,0-0.1-0.1c-0.4-0.2-0.8,0-1,0.4c-0.1,0.2-0.1,0.4,0,0.6c-0.3-0.1-0.5-0.1-0.8,0
			c-0.1-0.1-0.2-0.2-0.3-0.3c-0.4-0.2-0.8,0-1,0.4c-0.1,0.3,0,0.7,0.3,0.9c-0.1,0.3,0,0.7,0.1,0.9l-0.1,0.1
			c-0.1-0.1-0.2-0.2-0.4-0.3c-0.5-0.2-1,0-1.2,0.5c-0.2,0.4,0,0.9,0.3,1.1c-0.1,0.1-0.1,0.1-0.2,0.2c-0.4,0-0.8,0.2-0.9,0.6
			c-0.1,0.2-0.1,0.4-0.1,0.5c0,0,0,0-0.1,0.1c1,5.8,5.3,10.9,11.7,12.4c0.4,0.1,0.9,0.2,1.3,0.2c0,0,0,0,0,0c0,0,0,0,0,0
			c3.1,0.4,6.2-0.1,8.8-1.4c1.8-0.9,3.5-2.1,4.9-3.7C59.2,85.2,54.9,78.4,52.9,75.6z"/>
		<path class="st8" d="M32.2,76.6c0.4,0.2,0.8,0,1-0.4c0.2-0.4,0-0.8-0.4-1c-0.4-0.2-0.8,0-1,0.4C31.6,76,31.8,76.4,32.2,76.6z"/>
		<path class="st8" d="M36.4,75.5c0.3,0.1,0.7,0,0.8-0.3c0.1-0.3,0-0.7-0.3-0.8c-0.3-0.1-0.7,0-0.8,0.3C35.9,75,36.1,75.3,36.4,75.5
			z"/>
		<path class="st8" d="M31.3,79c0.4,0.2,0.8,0,1-0.4c0.2-0.4,0-0.8-0.4-1c-0.4-0.2-0.8,0-1,0.4C30.8,78.4,30.9,78.8,31.3,79z"/>
		<path class="st8" d="M40.9,71.3c-0.1,0.2,0,0.5,0.3,0.6c0.2,0.1,0.5,0,0.6-0.2c0.1-0.2,0-0.5-0.3-0.6C41.3,70.9,41,71,40.9,71.3z"
			/>
		<path class="st8" d="M39.7,73c0.2,0.1,0.5,0,0.6-0.3c0.1-0.2,0-0.5-0.3-0.6c-0.2-0.1-0.5,0-0.6,0.3C39.4,72.6,39.5,72.9,39.7,73z"
			/>
		<path class="st8" d="M34.9,74.9c-0.4-0.2-0.8,0-1,0.4c-0.2,0.4,0,0.8,0.4,1c0.4,0.2,0.8,0,1-0.4C35.5,75.6,35.3,75.1,34.9,74.9z"
			/>
		<path class="st8" d="M36.3,73.4c0.1-0.3,0-0.7-0.3-0.8c-0.3-0.1-0.7,0-0.8,0.3c-0.1,0.3,0,0.7,0.3,0.8
			C35.7,73.9,36.1,73.8,36.3,73.4z"/>
		<path class="st8" d="M34.4,72c0.3,0.1,0.7,0,0.8-0.3c0.1-0.3,0-0.7-0.3-0.8c-0.3-0.1-0.7,0-0.8,0.3C33.9,71.5,34.1,71.9,34.4,72z"
			/>
		<path class="st8" d="M37.6,73.6c0.3,0.1,0.7,0,0.8-0.3c0.1-0.3,0-0.7-0.3-0.8c-0.3-0.1-0.7,0-0.8,0.3C37.1,73,37.2,73.4,37.6,73.6
			z"/>
		<path class="st8" d="M36.6,72c0.3,0.1,0.7,0,0.8-0.3c0.1-0.3,0-0.7-0.3-0.8c-0.3-0.1-0.7,0-0.8,0.3C36.2,71.5,36.3,71.9,36.6,72z"
			/>
		<path class="st8" d="M36,70.1c0.3,0.1,0.7,0,0.8-0.3c0.1-0.3,0-0.7-0.3-0.8c-0.3-0.1-0.7,0-0.8,0.3C35.5,69.6,35.7,70,36,70.1z"/>
		<path class="st8" d="M39.8,71.3c0.1-0.2,0-0.5-0.3-0.6c-0.2-0.1-0.5,0-0.6,0.2c-0.1,0.2,0,0.5,0.3,0.6
			C39.4,71.6,39.7,71.5,39.8,71.3z"/>
		<path class="st8" d="M38.2,69.9c0.2,0.1,0.5,0,0.6-0.2c0.1-0.2,0-0.5-0.3-0.6c-0.2-0.1-0.5,0-0.6,0.2
			C37.8,69.5,37.9,69.8,38.2,69.9z"/>
		<path class="st8" d="M37.2,68.5c0.2,0.1,0.5,0,0.6-0.2c0.1-0.2,0-0.5-0.3-0.6c-0.2-0.1-0.5,0-0.6,0.2
			C36.8,68.2,36.9,68.4,37.2,68.5z"/>
		<path class="st8" d="M38.9,67.2c0.2,0.1,0.5,0,0.6-0.2c0.1-0.2,0-0.5-0.3-0.6c-0.2-0.1-0.5,0-0.6,0.2
			C38.6,66.8,38.7,67.1,38.9,67.2z"/>
		<path class="st8" d="M39.8,68.6c0.2,0.1,0.5,0,0.6-0.2c0.1-0.2,0-0.5-0.3-0.6c-0.2-0.1-0.5,0-0.6,0.2
			C39.4,68.3,39.5,68.5,39.8,68.6z"/>
		<path class="st8" d="M40.6,70.4c0.2,0.1,0.5,0,0.6-0.2c0.1-0.2,0-0.5-0.3-0.6c-0.2-0.1-0.5,0-0.6,0.2C40.3,70,40.4,70.3,40.6,70.4
			z"/>
		<path class="st8" d="M41.1,66c0.1-0.1,0-0.3-0.1-0.3c-0.1-0.1-0.3,0-0.3,0.1c-0.1,0.1,0,0.3,0.1,0.3C40.9,66.2,41,66.1,41.1,66z"
			/>
		<path class="st8" d="M33.1,74.3c0.4,0.2,0.8,0,1-0.4c0.2-0.4,0-0.8-0.4-1c-0.4-0.2-0.8,0-1,0.4C32.6,73.7,32.7,74.2,33.1,74.3z"/>
	</g>
	<g>
		<path class="st10" d="M116.1,86.1h0.6l1.1,6.6h-0.6l-0.3-1.9H114l-1.1,1.9h-0.7L116.1,86.1z M116.8,90.2l-0.4-2.9
			c0-0.2,0-0.3,0-0.5h0l0,0.1c0,0-0.1,0.1-0.1,0.3c-0.1,0.1-0.6,1.1-1.7,3H116.8z"/>
		<path class="st10" d="M120.5,88h0.6l-0.6,2.7c-0.1,0.4-0.1,0.6-0.1,0.7c0,0.6,0.2,0.9,0.7,0.9c0.2,0,0.5-0.1,0.8-0.3
			c0.3-0.2,0.5-0.5,0.8-0.8c0.2-0.3,0.4-0.7,0.5-1l0.5-2.2h0.6l-0.7,3.4c-0.1,0.5-0.2,0.9-0.2,1.3h-0.6l0.2-1.2h0
			c-0.3,0.4-0.6,0.8-0.9,1c-0.3,0.2-0.7,0.3-1,0.3c-0.4,0-0.7-0.1-0.9-0.3c-0.2-0.2-0.3-0.5-0.3-1c0-0.1,0-0.2,0-0.4
			c0-0.2,0.1-0.4,0.1-0.5L120.5,88z"/>
		<path class="st10" d="M132.2,92.7c0-0.3,0.1-0.7,0.2-1.2h0c-0.3,0.5-0.5,0.8-0.8,1c-0.3,0.2-0.6,0.3-0.9,0.3c-0.4,0-0.7-0.1-1-0.4
			c-0.2-0.3-0.4-0.7-0.4-1.3c0-0.6,0.1-1.1,0.4-1.6c0.2-0.5,0.6-0.9,1-1.2c0.4-0.3,0.9-0.4,1.4-0.4c0.3,0,0.6,0,0.9,0.1l0.5-2.3h0.6
			l-1.2,5.5c0,0.1-0.1,0.4-0.1,0.7c0,0.4-0.1,0.6-0.1,0.8H132.2z M132.9,88.5c-0.3-0.1-0.6-0.1-0.9-0.1c-0.4,0-0.8,0.1-1.1,0.3
			c-0.3,0.2-0.6,0.5-0.8,1c-0.2,0.4-0.3,0.9-0.3,1.4c0,0.8,0.3,1.3,0.9,1.3c0.2,0,0.5-0.1,0.8-0.3c0.3-0.2,0.5-0.5,0.7-0.9
			c0.2-0.4,0.4-0.8,0.5-1.2L132.9,88.5z"/>
		<path class="st10" d="M135.8,90.9c0,0.4,0.1,0.8,0.3,1c0.2,0.2,0.6,0.4,1,0.4c0.4,0,0.9-0.1,1.3-0.4l-0.1,0.6
			c-0.4,0.2-0.9,0.3-1.3,0.3c-0.6,0-1-0.2-1.3-0.5c-0.3-0.3-0.5-0.8-0.5-1.4c0-0.5,0.1-1,0.3-1.5c0.2-0.5,0.5-0.8,0.9-1.1
			c0.4-0.3,0.8-0.4,1.2-0.4c0.4,0,0.8,0.1,1,0.3c0.3,0.2,0.4,0.5,0.4,0.8c0,0.5-0.3,0.9-0.8,1.2c-0.5,0.3-1.4,0.4-2.5,0.4
			L135.8,90.9z M135.8,90.2c0.9,0,1.6-0.1,2-0.3c0.4-0.2,0.6-0.4,0.6-0.8c0-0.2-0.1-0.4-0.2-0.5c-0.2-0.1-0.4-0.2-0.6-0.2
			c-0.4,0-0.8,0.2-1.1,0.5C136.2,89.2,136,89.6,135.8,90.2"/>
		<path class="st10" d="M141.9,85.7h0.6l-1.2,5.6c-0.1,0.3-0.1,0.5-0.1,0.6c0,0.2,0.1,0.3,0.4,0.3c0.1,0,0.3,0,0.4-0.1l-0.1,0.5
			c-0.2,0.1-0.3,0.1-0.5,0.1c-0.2,0-0.4-0.1-0.5-0.2c-0.1-0.1-0.2-0.3-0.2-0.5c0-0.2,0-0.4,0.1-0.8L141.9,85.7z"/>
		<path class="st10" d="M146.6,92.7c0-0.3,0.1-0.7,0.2-1.3h0c-0.3,0.5-0.6,0.8-0.8,1.1c-0.3,0.2-0.6,0.3-0.9,0.3
			c-0.4,0-0.7-0.1-1-0.4c-0.2-0.3-0.4-0.7-0.4-1.3c0-0.6,0.1-1.1,0.4-1.6c0.3-0.5,0.6-0.9,1-1.2c0.4-0.3,0.9-0.4,1.5-0.4
			c0.4,0,0.9,0.1,1.5,0.2l-0.6,3c0,0.2-0.1,0.5-0.1,0.8c0,0.3-0.1,0.6-0.1,0.8H146.6z M147.4,88.5c-0.3-0.1-0.6-0.1-0.9-0.1
			c-0.4,0-0.8,0.1-1.1,0.3c-0.3,0.2-0.6,0.5-0.8,1c-0.2,0.4-0.3,0.9-0.3,1.4c0,0.8,0.3,1.2,0.9,1.2c0.2,0,0.5-0.1,0.8-0.3
			c0.3-0.2,0.5-0.5,0.7-0.9c0.2-0.4,0.4-0.8,0.5-1.2L147.4,88.5z M145.6,85.7h0.6l0.9,1.5h-0.5L145.6,85.7z"/>
		<path class="st10" d="M156,92.7c0-0.3,0.1-0.7,0.2-1.2h0c-0.3,0.5-0.5,0.8-0.8,1c-0.3,0.2-0.6,0.3-0.9,0.3c-0.4,0-0.7-0.1-1-0.4
			c-0.2-0.3-0.4-0.7-0.4-1.3c0-0.6,0.1-1.1,0.4-1.6c0.2-0.5,0.6-0.9,1-1.2c0.4-0.3,0.9-0.4,1.4-0.4c0.3,0,0.6,0,0.9,0.1l0.5-2.3h0.6
			l-1.2,5.5c0,0.1-0.1,0.4-0.1,0.7c0,0.4-0.1,0.6-0.1,0.8H156z M156.8,88.5c-0.3-0.1-0.6-0.1-0.9-0.1c-0.4,0-0.8,0.1-1.1,0.3
			c-0.3,0.2-0.6,0.5-0.8,1c-0.2,0.4-0.3,0.9-0.3,1.4c0,0.8,0.3,1.3,0.9,1.3c0.2,0,0.5-0.1,0.8-0.3c0.3-0.2,0.5-0.5,0.7-0.9
			c0.2-0.4,0.4-0.8,0.5-1.2L156.8,88.5z"/>
		<path class="st10" d="M159.6,90.9c0,0.4,0.1,0.8,0.3,1c0.2,0.2,0.6,0.4,1,0.4c0.4,0,0.9-0.1,1.3-0.4l-0.1,0.6
			c-0.4,0.2-0.9,0.3-1.3,0.3c-0.6,0-1-0.2-1.3-0.5c-0.3-0.3-0.5-0.8-0.5-1.4c0-0.5,0.1-1,0.3-1.5c0.2-0.5,0.5-0.8,0.9-1.1
			c0.4-0.3,0.8-0.4,1.2-0.4c0.4,0,0.8,0.1,1,0.3c0.3,0.2,0.4,0.5,0.4,0.8c0,0.5-0.3,0.9-0.8,1.2c-0.5,0.3-1.4,0.4-2.5,0.4
			L159.6,90.9z M159.7,90.2c0.9,0,1.6-0.1,2-0.3c0.4-0.2,0.6-0.4,0.6-0.8c0-0.2-0.1-0.4-0.2-0.5c-0.2-0.1-0.4-0.2-0.6-0.2
			c-0.4,0-0.8,0.2-1.1,0.5C160,89.2,159.8,89.6,159.7,90.2"/>
		<path class="st10" d="M168.2,88h0.6l0.5,3.4c0,0.2,0.1,0.5,0.1,0.7h0c0.1-0.2,0.2-0.4,0.3-0.5l2-3.5h0.7l-2.8,4.7H169L168.2,88z"
			/>
		<path class="st10" d="M174.9,92.8c-0.5,0-0.9-0.2-1.2-0.5c-0.3-0.3-0.5-0.8-0.5-1.3c0-0.6,0.1-1.1,0.3-1.6
			c0.2-0.5,0.5-0.8,0.9-1.1c0.4-0.3,0.8-0.4,1.3-0.4c0.5,0,0.9,0.2,1.2,0.5c0.3,0.3,0.5,0.8,0.5,1.3c0,0.6-0.1,1.1-0.3,1.6
			c-0.2,0.5-0.5,0.8-0.9,1.1C175.8,92.6,175.4,92.8,174.9,92.8 M175,92.3c0.3,0,0.7-0.1,1-0.3c0.3-0.2,0.5-0.5,0.7-0.9
			c0.2-0.4,0.2-0.8,0.2-1.3c0-0.4-0.1-0.8-0.3-1c-0.2-0.2-0.5-0.4-0.8-0.4c-0.5,0-1,0.2-1.3,0.7c-0.4,0.5-0.5,1.1-0.5,1.8
			c0,0.4,0.1,0.8,0.3,1C174.3,92.2,174.6,92.3,175,92.3"/>
		<path class="st10" d="M179,91.9c0.1,0.1,0.3,0.2,0.5,0.3c0.2,0.1,0.4,0.1,0.6,0.1c0.3,0,0.6-0.1,0.8-0.2c0.2-0.1,0.3-0.3,0.3-0.6
			c0-0.2-0.1-0.3-0.2-0.5c-0.1-0.1-0.3-0.3-0.6-0.5c-0.3-0.2-0.6-0.4-0.7-0.6c-0.1-0.2-0.2-0.4-0.2-0.7c0-0.4,0.1-0.7,0.4-1
			c0.3-0.3,0.7-0.4,1.2-0.4c0.2,0,0.4,0,0.6,0.1c0.2,0,0.4,0.1,0.5,0.2l-0.1,0.6c-0.3-0.2-0.6-0.3-1-0.3c-0.3,0-0.5,0.1-0.7,0.2
			c-0.2,0.2-0.3,0.4-0.3,0.6c0,0.2,0,0.3,0.1,0.5c0.1,0.1,0.3,0.3,0.6,0.5c0.4,0.2,0.6,0.4,0.7,0.6c0.1,0.2,0.2,0.4,0.2,0.7
			c0,0.4-0.2,0.7-0.5,1c-0.3,0.2-0.7,0.4-1.2,0.4c-0.2,0-0.4,0-0.6-0.1c-0.2-0.1-0.4-0.1-0.6-0.2L179,91.9z"/>
		<path class="st10" d="M188,88h0.6l-0.2,1.1h0c0.2-0.4,0.4-0.7,0.7-0.9c0.2-0.2,0.5-0.3,0.8-0.3c0.2,0,0.3,0,0.5,0.1l-0.1,0.6h0
			c-0.2-0.1-0.3-0.2-0.5-0.2c-0.3,0-0.7,0.2-1,0.6c-0.3,0.4-0.5,0.9-0.7,1.6l-0.4,2.1h-0.6l0.7-3.1C187.9,88.9,188,88.4,188,88"/>
		<path class="st10" d="M191.9,90.9c0,0.4,0.1,0.8,0.3,1c0.2,0.2,0.6,0.4,1,0.4c0.4,0,0.9-0.1,1.3-0.4l-0.1,0.6
			c-0.4,0.2-0.9,0.3-1.3,0.3c-0.6,0-1-0.2-1.3-0.5c-0.3-0.3-0.5-0.8-0.5-1.4c0-0.5,0.1-1,0.3-1.5c0.2-0.5,0.5-0.8,0.9-1.1
			c0.4-0.3,0.8-0.4,1.2-0.4c0.4,0,0.8,0.1,1,0.3c0.3,0.2,0.4,0.5,0.4,0.8c0,0.5-0.3,0.9-0.8,1.2c-0.5,0.3-1.4,0.4-2.5,0.4
			L191.9,90.9z M192,90.2c0.9,0,1.6-0.1,2-0.3c0.4-0.2,0.6-0.4,0.6-0.8c0-0.2-0.1-0.4-0.2-0.5c-0.2-0.1-0.4-0.2-0.6-0.2
			c-0.4,0-0.8,0.2-1.1,0.5C192.3,89.2,192.1,89.6,192,90.2 M194,85.6h0.4l0.7,1.5h-0.4l-0.5-1.1l-1,1.1h-0.5L194,85.6z"/>
		<path class="st10" d="M197,88h0.6l0.5,3.4c0,0.2,0.1,0.5,0.1,0.7h0c0.1-0.2,0.2-0.4,0.3-0.5l2-3.5h0.7l-2.8,4.7h-0.5L197,88z"/>
		<path class="st10" d="M202.6,90.9c0,0.4,0.1,0.8,0.3,1c0.2,0.2,0.6,0.4,1,0.4c0.4,0,0.9-0.1,1.3-0.4l-0.1,0.6
			c-0.4,0.2-0.9,0.3-1.3,0.3c-0.6,0-1-0.2-1.3-0.5c-0.3-0.3-0.5-0.8-0.5-1.4c0-0.5,0.1-1,0.3-1.5c0.2-0.5,0.5-0.8,0.9-1.1
			c0.4-0.3,0.8-0.4,1.2-0.4c0.4,0,0.8,0.1,1,0.3c0.3,0.2,0.4,0.5,0.4,0.8c0,0.5-0.3,0.9-0.8,1.2c-0.5,0.3-1.4,0.4-2.5,0.4
			L202.6,90.9z M202.7,90.2c0.9,0,1.6-0.1,2-0.3c0.4-0.2,0.6-0.4,0.6-0.8c0-0.2-0.1-0.4-0.2-0.5c-0.2-0.1-0.4-0.2-0.6-0.2
			c-0.4,0-0.8,0.2-1.1,0.5C203,89.2,202.8,89.6,202.7,90.2"/>
		<path class="st10" d="M207.2,91.9c0.1,0.1,0.3,0.2,0.5,0.3c0.2,0.1,0.4,0.1,0.6,0.1c0.3,0,0.6-0.1,0.8-0.2
			c0.2-0.1,0.3-0.3,0.3-0.6c0-0.2-0.1-0.3-0.2-0.5c-0.1-0.1-0.3-0.3-0.6-0.5c-0.3-0.2-0.6-0.4-0.7-0.6c-0.1-0.2-0.2-0.4-0.2-0.7
			c0-0.4,0.1-0.7,0.4-1c0.3-0.3,0.7-0.4,1.2-0.4c0.2,0,0.4,0,0.6,0.1c0.2,0,0.4,0.1,0.5,0.2l-0.1,0.6c-0.3-0.2-0.6-0.3-1-0.3
			c-0.3,0-0.5,0.1-0.7,0.2c-0.2,0.2-0.3,0.4-0.3,0.6c0,0.2,0,0.3,0.1,0.5c0.1,0.1,0.3,0.3,0.6,0.5c0.4,0.2,0.6,0.4,0.7,0.6
			c0.1,0.2,0.2,0.4,0.2,0.7c0,0.4-0.2,0.7-0.5,1c-0.3,0.2-0.7,0.4-1.2,0.4c-0.2,0-0.4,0-0.6-0.1c-0.2-0.1-0.4-0.1-0.6-0.2
			L207.2,91.9z"/>
		<path class="st10" d="M212.3,92.8c-0.1,0-0.2,0-0.3-0.1c-0.1-0.1-0.1-0.2-0.1-0.3c0-0.1,0-0.2,0.1-0.3c0.1-0.1,0.2-0.1,0.3-0.1
			c0.1,0,0.2,0,0.3,0.1c0.1,0.1,0.1,0.2,0.1,0.3c0,0.1,0,0.2-0.1,0.3C212.5,92.7,212.4,92.8,212.3,92.8"/>
		<path class="st10" d="M215.3,92.8c-0.1,0-0.2,0-0.3-0.1c-0.1-0.1-0.1-0.2-0.1-0.3c0-0.1,0-0.2,0.1-0.3c0.1-0.1,0.2-0.1,0.3-0.1
			c0.1,0,0.2,0,0.3,0.1c0.1,0.1,0.1,0.2,0.1,0.3c0,0.1,0,0.2-0.1,0.3C215.5,92.7,215.4,92.8,215.3,92.8"/>
		<path class="st10" d="M218.3,92.8c-0.1,0-0.2,0-0.3-0.1c-0.1-0.1-0.1-0.2-0.1-0.3c0-0.1,0-0.2,0.1-0.3c0.1-0.1,0.2-0.1,0.3-0.1
			c0.1,0,0.2,0,0.3,0.1c0.1,0.1,0.1,0.2,0.1,0.3c0,0.1,0,0.2-0.1,0.3C218.5,92.7,218.4,92.8,218.3,92.8"/>
	</g>
</g>
</svg>
